<svg width="11" height="13" viewBox="0 0 11 13" fill="none" xmlns="http://www.w3.org/2000/svg">
<path d="M10.56 7.31957H2.64C2.39702 7.31957 2.2 7.0147 2.2 6.63871C2.2 6.26272 2.39702 5.95785 2.64 5.95785H10.56C10.803 5.95785 11 6.26272 11 6.63871C11 7.0147 10.803 7.31957 10.56 7.31957ZM8.36 12.7664H0.44C0.197017 12.7664 0 12.4616 0 12.0856C0 11.7096 0.197017 11.4047 0.44 11.4047H8.36C8.60298 11.4047 8.8 11.7096 8.8 12.0856C8.8 12.4616 8.60298 12.7664 8.36 12.7664ZM8.36 1.8727H0.44C0.197017 1.8727 0 1.56784 0 1.19184C0 0.815851 0.197017 0.510986 0.44 0.510986H8.36C8.60298 0.510986 8.8 0.815851 8.8 1.19184C8.8 1.56784 8.60298 1.8727 8.36 1.8727Z" fill="white"/>
</svg>
