<svg xmlns="http://www.w3.org/2000/svg" width="33.549" viewBox="0 0 34 37">
						<defs>
							<clipPath id="a"><path data-name="Rectangle 24" fill="#fff" d="M0 0h16.314v16.372H0z"></path>
							</clipPath>
							<clipPath id="b"><path data-name="Path 405" d="M0-23.74h33.549v-36.279H0Z" transform="translate(0 60.019)" fill="none"></path>
							</clipPath>
						</defs>
						<g data-name="Group 3999">
							<g data-name="Group 177">
								<g data-name="Group 176" clip-path="url(#a)" transform="translate(8.811 12.17)"><path data-name="Path 387" d="m15.7 11.544-1.963-1.967a1.865 1.865 0 0 0-1.354-.614 1.929 1.929 0 0
											0-1.366.609l-1.024 1.024-.147-.074a3.684 3.684 0 0 1-.335-.182 12.128 12.128 0 0
											1-2.896-2.639 7.219 7.219 0 0 1-.88-1.353c.259-.243.5-.491.735-.728l.3-.3a1.951
											1.951 0 0 0 .625-1.379 1.939 1.939 0 0
											0-.626-1.379l-.976-.976c-.111-.111-.216-.218-.325-.332-.219-.225-.449-.453-.678-.671A1.911
											1.911 0 0 0 3.442.001a1.964 1.964 0 0 0-1.361.585L.851 1.817a2.775 2.775 0 0
											0-.836 1.784 6.312 6.312 0 0 0 .472 2.74 15.493 15.493 0 0 0 2.77 4.626 17.078
											17.078 0 0 0 5.672 4.443 8.992 8.992 0 0 0 3.224.95h.015c.073 0
											.147.007.226.007a2.855 2.855 0 0 0 2.21-.95c.01-.012.023-.025.036-.043a7.482
											7.482 0 0 1 .56-.573l.046-.045c.188-.18.337-.329.469-.466a1.982 1.982 0 0 0
											.6-1.382 1.925 1.925 0 0 0-.611-1.368ZM1.378 3.72a1.443 1.443 0 0 1
											.439-.94l1.217-1.217a.608.608 0 0 1 .4-.2.585.585 0 0 1
											.388.2l.01.01c.185.172.363.353.552.545l.086.088.172.175c.056.056.112.114.169.172l.979.979a.661.661
											0 0 1 .225.413.661.661 0 0
											1-.225.413c-.051.051-.1.1-.154.155s-.1.1-.152.154l-.069.069c-.276.279-.538.543-.821.8l-.024.025a.922.922
											0 0 0-.233 1.016c0 .012.007.02.01.03l.007.017a8.029 8.029 0 0 0 1.189 1.937 13.4
											13.4 0 0 0 3.226 2.94 3.608 3.608 0 0 0 .387.213c.023.012.048.023.071.036a3.7 3.7
											0 0 1 .335.182l.03.017.03.016a.975.975 0 0 0 .446.112.948.948 0 0 0
											.687-.306l1.226-1.226a.615.615 0 0 1 .4-.208.563.563 0 0 1 .373.2l1.979
											1.975a.515.515 0 0 1-.013.839c-.139.149-.286.291-.424.424l-.04.038a9.143 9.143 0
											0 0-.662.69 1.51 1.51 0 0 1-1.194.5c-.046 0-.1 0-.152-.007a7.632 7.632 0 0
											1-2.72-.818 15.661 15.661 0 0 1-5.217-4.077 14.323 14.323 0 0 1-2.54-4.227 5.047
											5.047 0 0 1-.393-2.157Z" fill="#fff"></path>
								</g>
							</g>
							<g data-name="Group 270" clip-path="url(#b)">
								<g data-name="Group 269"><path data-name="Path 404" d="M22.915.163S6.982-.6 1.564 13.505 6.302 36.78 16.223 36.097c7.853-.541
											12.144-3.123 15.551-8.487 3.649-5.747 2.868-25.139-16.188-23.182" fill="none" stroke="#fff" stroke-width=".5"></path>
								</g>
							</g>
						</g>
					</svg>