<svg width="15" height="13" viewBox="0 0 15 13" fill="none" xmlns="http://www.w3.org/2000/svg">
<path d="M3.57336 12.6078H0.676025V4.44136H3.57336V12.6078ZM2.12527 3.35251C1.32387 3.35251 0.676025 2.7422 0.676025 1.99089C0.676025 1.23959 1.32503 0.630371 2.12527 0.630371C2.92378 0.630371 3.57336 1.24067 3.57336 1.99089C3.57336 2.7422 2.92378 3.35251 2.12527 3.35251ZM14.0038 12.6078H11.2183V8.63345C11.2183 7.6856 11.1991 6.46663 9.77018 6.46663C8.31977 6.46663 8.09668 7.49886 8.09668 8.56485V12.6078H5.31176V4.43537H7.98542V5.55199H8.02309C8.3951 4.90957 9.30429 4.2323 10.6602 4.2323C13.4822 4.2323 14.0038 5.92493 14.0038 8.1255V12.6078Z" fill="white"/>
</svg>
