<svg xmlns="http://www.w3.org/2000/svg" width="430" height="430"
    style="width:100%;height:100%;transform:translate3d(0,0,0);content-visibility:visible"
    viewBox="0 0 430 430">
    <defs>
        <clipPath id="a">
            <path d="M0 0h430v430H0z" />
        </clipPath>
        <clipPath id="c">
            <path d="M0 0h430v430H0z" />
        </clipPath>
        <clipPath id="b">
            <path d="M0 0h430v430H0z" />
        </clipPath>
    </defs>
    <g clipPath="url(#a)">
        <g clipPath="url(#b)" style="display:block">
            <path fill="#4BB3FD"
                d="M121.32-46.13c-17.944-42.066-59.671-71.558-108.293-71.558-45.444 0-84.843 25.775-104.454 63.487A36.496 36.496 0 0 0-102.739-56c-20.227 0-36.62 16.397-36.62 36.624 0 2.709.314 5.341.871 7.882-21.794 11.473-36.677 34.307-36.677 60.648 0 37.849 30.685 68.534 68.534 68.534H90.317c46.858 0 84.848-37.986 84.848-84.844 0-35.913-22.327-66.591-53.845-78.974z"
                class="primary" style="display:block" transform="translate(218.5 213) scale(.99999)" />
            <g opacity=".5" style="mix-blend-mode:multiply;display:block">
                <path fill="#4BB3FD"
                    d="M-19.58 49.154c0-26.341 14.883-49.175 36.677-60.648a36.745 36.745 0 0 1-.872-7.882C16.225-39.603 32.619-56 52.846-56c3.951 0 7.749.64 11.312 1.799 11.948-22.977 31.251-41.507 54.782-52.492-15.097-7.045-31.928-10.995-49.688-10.995-45.444 0-84.843 25.775-104.454 63.487A36.49 36.49 0 0 0-46.514-56c-20.226 0-36.621 16.397-36.621 36.624 0 2.709.315 5.341.872 7.882-21.795 11.473-36.677 34.307-36.677 60.648 0 37.849 30.685 68.534 68.534 68.534h99.36c-37.849 0-68.534-30.685-68.534-68.534z"
                    class="primary" opacity="1" style="mix-blend-mode:multiply"
                    transform="translate(161.195 213) scale(.99999)" />
            </g>
            <g fill="#3A3347" style="display:block">
                <path
                    d="m99.552 242.048 66.169 59.52c1.932 1.738 5.009.365 5.006-2.233l-.032-32.269a3.998 3.998 0 0 0-1.295-2.943l-26.484-24.302 26.484-24.297a4 4 0 0 0 1.296-2.944l.034-32.267c.003-2.598-3.074-3.97-5.006-2.233l-66.172 59.507a3 3 0 0 0 0 4.461z"
                    class="secondary" />
                <path fill-opacity=".5"
                    d="m-35.092 2.224 66.169 59.52c1.932 1.738 5.009.365 5.006-2.233l-.032-32.269a3.998 3.998 0 0 0-1.295-2.943L8.272-.003 34.756-24.3a4 4 0 0 0 1.296-2.944l.034-32.267c.003-2.598-3.074-3.97-5.006-2.233L-35.092-2.237a3 3 0 0 0 0 4.461z"
                    class="secondary" style="mix-blend-mode:multiply"
                    transform="translate(134.644 239.824)" />
            </g>
            <path fill="#3A3347"
                d="M35.092-2.237-31.08-61.744c-1.932-1.737-5.009-.365-5.006 2.233l.034 32.267a4 4 0 0 0 1.296 2.944L-8.272-.003l-26.484 24.302a3.998 3.998 0 0 0-1.295 2.943l-.032 32.269c-.003 2.598 3.074 3.971 5.006 2.233l66.169-59.52a3 3 0 0 0 0-4.461z"
                class="secondary" style="display:block" transform="translate(305.224 239.824)" />
            <g fill="#3A3347" style="display:block">
                <path
                    d="m223.492 175.991-42.004 126.46a3 3 0 0 0 2.847 3.945h28.245a4 4 0 0 0 3.796-2.739l42.004-126.46a3 3 0 0 0-2.847-3.945h-28.245a4 4 0 0 0-3.796 2.739z"
                    class="secondary" />
                <path
                    d="m11.802-63.833-42.003 126.46a3 3 0 0 0 2.847 3.945h13.487l.045-.136L30.28-66.342l.076-.23H15.598a4 4 0 0 0-3.796 2.739z"
                    class="secondary" opacity=".5" style="mix-blend-mode:multiply"
                    transform="translate(211.934 239.824)" />
            </g>
        </g>
        <g clipPath="url(#c)" style="display:none">
            <path class="primary" style="display:none" />
            <path class="primary" style="display:none" />
            <path class="primary" style="display:none" />
            <path class="primary" style="display:none" />
            <path class="primary" style="display:none" />
            <path class="primary" style="display:none" />
            <path class="primary" style="mix-blend-mode:multiply;display:none" />
            <g style="display:none">
                <path class="secondary" />
                <path class="secondary" style="mix-blend-mode:multiply" />
            </g>
            <path class="secondary" style="display:none" />
            <g style="display:none">
                <path class="secondary" />
                <path class="secondary" style="mix-blend-mode:multiply" />
            </g>
        </g>
    </g>
</svg>