<svg xmlns="http://www.w3.org/2000/svg" xmlnsXlink="http://www.w3.org/1999/xlink"
    viewBox="0 0 430 430" width="430" height="430" preserveAspectRatio="xMidYMid meet"
    style="width: 100%; height: 100%; transform: translate3d(0px, 0px, 0px); content-visibility: visible;">
    <defs>
        <clipPath id="__lottie_element_1183">
            <rect width="430" height="430" x="0" y="0" />
        </clipPath>
        <clipPath id="__lottie_element_1185">
            <path d="M0,0 L430,0 L430,430 L0,430z" />
        </clipPath>
        <clipPath id="__lottie_element_1193">
            <path d="M0,0 L430,0 L430,430 L0,430z" />
        </clipPath>
        <g id="__lottie_element_1196">
            <g
                transform="matrix(0.9944193959236145,-0.10549900680780411,0.10549900680780411,0.9944193959236145,-92.02201080322266,-3.460052728652954)"
                opacity="1" style="display: none;">
                <g opacity="1" transform="matrix(1,0,0,1,250,249.75999450683594)">
                    <path fill="rgb(255,0,0)" fill-opacity="1"
                        d=" M26.690000534057617,-186.57000732421875 C26.690000534057617,-186.57000732421875 -133.42999267578125,-186.57000732421875 -133.42999267578125,-186.57000732421875 C-133.42999267578125,-186.57000732421875 -133.42999267578125,186.57000732421875 -133.42999267578125,186.57000732421875 C-133.42999267578125,186.57000732421875 133.42999267578125,186.57000732421875 133.42999267578125,186.57000732421875 C133.42999267578125,186.57000732421875 133.42999267578125,-79.81999969482422 133.42999267578125,-79.81999969482422 C133.42999267578125,-79.81999969482422 26.690000534057617,-186.57000732421875 26.690000534057617,-186.57000732421875z" />
                </g>
            </g>
        </g>
        <filter id="__lottie_element_1208" filterUnits="objectBoundingBox" x="0%" y="0%"
            width="100%" height="100%">
            <feComponentTransfer in="SourceGraphic">
                <feFuncA type="table" tableValues="1.0 0.0" />
            </feComponentTransfer>
        </filter>
        <mask id="__lottie_element_1196_2" mask-type="alpha">
            <g filter="url(#__lottie_element_1208)">
                <rect width="430" height="430" x="0" y="0" fill="#ffffff" opacity="0" />
                <use xmlnsNs1="http://www.w3.org/1999/xlink" ns1Href="#__lottie_element_1196" />
            </g>
        </mask>
        <clipPath id="__lottie_element_1216">
            <path d="M0,0 L430,0 L430,430 L0,430z" />
        </clipPath>
    </defs>
    <g clipPath="url(#__lottie_element_1183)">
        <g clipPath="url(#__lottie_element_1185)" transform="matrix(1,0,0,1,0,0)" opacity="1"
            style="display: block;">
            <g
                transform="matrix(0.999628484249115,0.027257040143013,-0.027257040143013,0.999628484249115,-23.863922119140625,-44.444488525390625)"
                opacity="1" style="display: block;">
                <path stroke-linecap="round" stroke-linejoin="round" fill-opacity="0"
                    class="secondary" stroke="rgb(235,230,238)" stroke-opacity="1" stroke-width="7"
                    d=" M276.69,63.19 C276.69,63.19 116.57,63.19 116.57,63.19 C116.57,63.19 116.57,436.33 116.57,436.33 C116.57,436.33 383.43,436.33 383.43,436.33 C383.43,436.33 383.43,169.94 383.43,169.94 C383.43,169.94 276.69,63.19 276.69,63.19z M116.82,63.19 C116.82,63.19 116.82,436.14 116.82,436.14 C116.82,436.14 383.43,436.14 383.43,436.14" />
                <path class="secondary" fill="rgb(235,230,238)" fill-opacity="1"
                    d=" M276.69,63.19 C276.69,63.19 116.57,63.19 116.57,63.19 C116.57,63.19 116.57,436.33 116.57,436.33 C116.57,436.33 383.43,436.33 383.43,436.33 C383.43,436.33 383.43,169.94 383.43,169.94 C383.43,169.94 276.69,63.19 276.69,63.19z M116.82,63.19 C116.82,63.19 116.82,436.14 116.82,436.14 C116.82,436.14 383.43,436.14 383.43,436.14" />
                <g opacity="1" transform="matrix(1,0,0,1,250,249.75999450683594)" />
                <g opacity="0" transform="matrix(1,0,0,1,330.05999755859375,116.56700134277344)" />
            </g>
            <g clipPath="url(#__lottie_element_1216)"
                transform="matrix(0.999628484249115,0.027257040143013,-0.027257040143013,0.999628484249115,10.169078826904297,-8.503495216369629)"
                opacity="1" style="display: block;">
                <g transform="matrix(1,0,0,1,80,30)" opacity="1" style="display: block;">
                    <g opacity="1" transform="matrix(1,0,0,1,195.0449981689453,265.05999755859375)">
                        <path stroke-linecap="round" stroke-linejoin="round" fill-opacity="0"
                            class="primary" stroke="rgb(18,19,48)" stroke-opacity="1"
                            stroke-width="7"
                            d=" M20.014999389648438,0 C20.014999389648438,0 -20.014999389648438,0 -20.014999389648438,0" />
                    </g>
                    <g opacity="1" transform="matrix(1,0,0,1,101.64199829101562,265.05999755859375)">
                        <path stroke-linecap="round" stroke-linejoin="round" fill-opacity="0"
                            class="primary" stroke="rgb(18,19,48)" stroke-opacity="1"
                            stroke-width="7"
                            d=" M46.70100021362305,0 C46.70100021362305,0 -46.70100021362305,0 -46.70100021362305,0" />
                    </g>
                    <g opacity="1" transform="matrix(1,0,0,1,135,318.4330139160156)">
                        <path stroke-linecap="round" stroke-linejoin="round" fill-opacity="0"
                            class="primary" stroke="rgb(18,19,48)" stroke-opacity="1"
                            stroke-width="7"
                            d=" M76.52400207519531,0 C52.98899841308594,0 -80.05999755859375,0 -80.05999755859375,0" />
                    </g>
                </g>
                <g transform="matrix(1,0,0,1,80,30)" opacity="1" style="display: block;">
                    <g opacity="1" transform="matrix(1,0,0,1,101.44300079345703,184.9980010986328)">
                        <path stroke-linecap="round" stroke-linejoin="round" fill-opacity="0"
                            class="primary" stroke="rgb(18,19,48)" stroke-opacity="1"
                            stroke-width="7"
                            d=" M18.729999542236328,25.611000061035156 C18.729999542236328,25.611000061035156 12.63599967956543,28.40399932861328 1.5149999856948853,27.200000762939453 C-9.635000228881836,25.993000030517578 -18.729999542236328,15.579999923706055 -18.729999542236328,4.364999771118164 C-18.729999542236328,4.364999771118164 -18.729999542236328,-4.5 -18.729999542236328,-4.5 C-18.729999542236328,-17.451000213623047 -8.130000114440918,-27.763999938964844 4.817999839782715,-27.496999740600586 C13.1850004196167,-27.323999404907227 17.729999542236328,-25.761999130249023 17.729999542236328,-25.761999130249023" />
                    </g>
                    <g opacity="1" transform="matrix(1,0,0,1,165.73300170898438,184.9980010986328)">
                        <path stroke-linecap="round" stroke-linejoin="round" fill-opacity="0"
                            class="primary" stroke="rgb(18,19,48)" stroke-opacity="1"
                            stroke-width="7"
                            d=" M21.554000854492188,-26.687000274658203 C21.554000854492188,-26.687000274658203 0.6359999775886536,26.687000274658203 0.6359999775886536,26.687000274658203 C0.6359999775886536,26.687000274658203 -21.554000854492188,-26.687000274658203 -21.554000854492188,-26.687000274658203" />
                    </g>
                </g>
            </g>
            <g mask="url(#__lottie_element_1196_2)" style="display: none;">
                <g clipPath="url(#__lottie_element_1193)"
                    transform="matrix(0.9944193959236145,-0.10549900680780411,0.10549900680780411,0.9944193959236145,-52.53044509887695,27.546661376953125)"
                    opacity="1">
                    <g transform="matrix(1,0,0,1,80,30)" opacity="1" style="display: block;">
                        <g opacity="1"
                            transform="matrix(1,0,0,1,195.0449981689453,265.05999755859375)">
                            <path stroke-linecap="round" stroke-linejoin="round" fill-opacity="0"
                                class="primary" stroke="rgb(18,19,48)" stroke-opacity="1"
                                stroke-width="7"
                                d=" M20.014999389648438,0 C20.014999389648438,0 -20.014999389648438,0 -20.014999389648438,0" />
                        </g>
                        <g opacity="1"
                            transform="matrix(1,0,0,1,101.64199829101562,265.05999755859375)">
                            <path stroke-linecap="round" stroke-linejoin="round" fill-opacity="0"
                                class="primary" stroke="rgb(18,19,48)" stroke-opacity="1"
                                stroke-width="7"
                                d=" M46.70100021362305,0 C46.70100021362305,0 -46.70100021362305,0 -46.70100021362305,0" />
                        </g>
                        <g opacity="1" transform="matrix(1,0,0,1,135,318.4330139160156)">
                            <path stroke-linecap="round" stroke-linejoin="round" fill-opacity="0"
                                class="primary" stroke="rgb(18,19,48)" stroke-opacity="1"
                                stroke-width="7"
                                d=" M80.05999755859375,0 C80.05999755859375,0 -80.05999755859375,0 -80.05999755859375,0" />
                        </g>
                    </g>
                    <g transform="matrix(1,0,0,1,80,30)" opacity="1" style="display: block;">
                        <g opacity="1"
                            transform="matrix(1,0,0,1,101.44300079345703,184.9980010986328)">
                            <path stroke-linecap="round" stroke-linejoin="round" fill-opacity="0"
                                class="primary" stroke="rgb(18,19,48)" stroke-opacity="1"
                                stroke-width="7"
                                d=" M18.729999542236328,25.611000061035156 C18.729999542236328,25.611000061035156 12.63599967956543,28.40399932861328 1.5149999856948853,27.200000762939453 C-9.635000228881836,25.993000030517578 -18.729999542236328,15.579999923706055 -18.729999542236328,4.364999771118164 C-18.729999542236328,4.364999771118164 -18.729999542236328,-4.5 -18.729999542236328,-4.5 C-18.729999542236328,-17.451000213623047 -8.130000114440918,-27.763999938964844 4.817999839782715,-27.496999740600586 C13.1850004196167,-27.323999404907227 17.729999542236328,-25.761999130249023 17.729999542236328,-25.761999130249023" />
                        </g>
                        <g opacity="1"
                            transform="matrix(1,0,0,1,165.73300170898438,184.9980010986328)">
                            <path stroke-linecap="round" stroke-linejoin="round" fill-opacity="0"
                                class="primary" stroke="rgb(18,19,48)" stroke-opacity="1"
                                stroke-width="7"
                                d=" M21.554000854492188,-26.687000274658203 C21.554000854492188,-26.687000274658203 0.6359999775886536,26.687000274658203 0.6359999775886536,26.687000274658203 C0.6359999775886536,26.687000274658203 -21.554000854492188,-26.687000274658203 -21.554000854492188,-26.687000274658203" />
                        </g>
                    </g>
                </g>
            </g>
            <g
                transform="matrix(0.9944193959236145,-0.10549900680780411,0.10549900680780411,0.9944193959236145,-92.02201080322266,-3.460052728652954)"
                opacity="0.0014032258064634107" style="mix-blend-mode: multiply; display: none;">
                <g opacity="1" transform="matrix(1,0,0,1,250,249.75999450683594)">
                    <path stroke-linecap="round" stroke-linejoin="round" fill-opacity="0"
                        class="secondary" stroke="rgb(235,230,238)" stroke-opacity="1"
                        stroke-width="7"
                        d=" M26.690000534057617,-186.57000732421875 C26.690000534057617,-186.57000732421875 -133.42999267578125,-186.57000732421875 -133.42999267578125,-186.57000732421875 C-133.42999267578125,-186.57000732421875 -133.42999267578125,186.57000732421875 -133.42999267578125,186.57000732421875 C-133.42999267578125,186.57000732421875 133.42999267578125,186.57000732421875 133.42999267578125,186.57000732421875 C133.42999267578125,186.57000732421875 133.42999267578125,-79.81999969482422 133.42999267578125,-79.81999969482422 C133.42999267578125,-79.81999969482422 26.690000534057617,-186.57000732421875 26.690000534057617,-186.57000732421875z" />
                    <path class="secondary" fill="rgb(235,230,238)" fill-opacity="1"
                        d=" M26.690000534057617,-186.57000732421875 C26.690000534057617,-186.57000732421875 -133.42999267578125,-186.57000732421875 -133.42999267578125,-186.57000732421875 C-133.42999267578125,-186.57000732421875 -133.42999267578125,186.57000732421875 -133.42999267578125,186.57000732421875 C-133.42999267578125,186.57000732421875 133.42999267578125,186.57000732421875 133.42999267578125,186.57000732421875 C133.42999267578125,186.57000732421875 133.42999267578125,-79.81999969482422 133.42999267578125,-79.81999969482422 C133.42999267578125,-79.81999969482422 26.690000534057617,-186.57000732421875 26.690000534057617,-186.57000732421875z" />
                </g>
            </g>
            <g
                transform="matrix(0.999628484249115,0.027257040143013,-0.027257040143013,0.999628484249115,-23.863922119140625,-44.444488525390625)"
                opacity="1" style="mix-blend-mode: multiply; display: block;">
                <g opacity="1" transform="matrix(1,0,0,1,330.05999755859375,116.56700134277344)">
                    <path stroke-linecap="round" stroke-linejoin="round" fill-opacity="0"
                        class="secondary" stroke="rgb(235,230,238)" stroke-opacity="1"
                        stroke-width="7"
                        d=" M-53.37300109863281,-53.37300109863281 C-53.37300109863281,-53.37300109863281 53.37300109863281,53.37300109863281 53.37300109863281,53.37300109863281 M-53.37300109863281,-53.37300109863281 C-53.37300109863281,-53.37300109863281 -53.3271369934082,51.92424774169922 -52.63774108886719,52.62386703491211 C-51.93975830078125,53.33221435546875 53.37300109863281,53.37300109863281 53.37300109863281,53.37300109863281" />
                    <path class="secondary" fill="rgb(235,230,238)" fill-opacity="1"
                        d=" M-53.37300109863281,-53.37300109863281 C-53.37300109863281,-53.37300109863281 53.37300109863281,53.37300109863281 53.37300109863281,53.37300109863281 M-53.37300109863281,-53.37300109863281 C-53.37300109863281,-53.37300109863281 -53.3271369934082,51.92424774169922 -52.63774108886719,52.62386703491211 C-51.93975830078125,53.33221435546875 53.37300109863281,53.37300109863281 53.37300109863281,53.37300109863281" />
                </g>
            </g>
            <g
                transform="matrix(0.999628484249115,0.027257040143013,-0.027257040143013,0.999628484249115,-23.863922119140625,-44.444488525390625)"
                opacity="1" style="display: block;">
                <g opacity="1" transform="matrix(1,0,0,1,250,249.75999450683594)">
                    <path stroke-linecap="round" stroke-linejoin="round" fill-opacity="0"
                        class="primary" stroke="rgb(18,19,48)" stroke-opacity="1" stroke-width="7"
                        d=" M26.690000534057617,-186.57000732421875 C26.690000534057617,-186.57000732421875 -133.42999267578125,-186.57000732421875 -133.42999267578125,-186.57000732421875 C-133.42999267578125,-186.57000732421875 -133.42999267578125,186.57000732421875 -133.42999267578125,186.57000732421875 C-133.42999267578125,186.57000732421875 133.42999267578125,186.57000732421875 133.42999267578125,186.57000732421875 C133.42999267578125,186.57000732421875 133.42999267578125,-79.81999969482422 133.42999267578125,-79.81999969482422 C133.42999267578125,-79.81999969482422 26.690000534057617,-186.57000732421875 26.690000534057617,-186.57000732421875z" />
                </g>
                <g opacity="0" transform="matrix(1,0,0,1,330.05999755859375,116.56700134277344)">
                    <path stroke-linecap="round" stroke-linejoin="round" fill-opacity="0"
                        class="primary" stroke="rgb(18,19,48)" stroke-opacity="1" stroke-width="7"
                        d=" M-213.23699951171875,-53.37300109863281 C-213.23699951171875,-53.37300109863281 -213.23699951171875,319.57000732421875 -213.23699951171875,319.57000732421875 C-213.23699951171875,319.57000732421875 53.37300109863281,319.57000732421875 53.37300109863281,319.57000732421875" />
                </g>
            </g>
            <g
                transform="matrix(0.999628484249115,0.027257040143013,-0.027257040143013,0.999628484249115,-23.863922119140625,-44.444488525390625)"
                opacity="1" style="display: block;">
                <g opacity="1" transform="matrix(1,0,0,1,330.05999755859375,116.56700134277344)">
                    <path stroke-linecap="round" stroke-linejoin="round" fill-opacity="0"
                        class="primary" stroke="rgb(18,19,48)" stroke-opacity="1" stroke-width="7"
                        d=" M-53.37300109863281,-53.37300109863281 C-53.37300109863281,-53.37300109863281 -53.3271369934082,51.92424774169922 -52.63774108886719,52.62386703491211 C-51.93975830078125,53.33221435546875 53.37300109863281,53.37300109863281 53.37300109863281,53.37300109863281" />
                </g>
            </g>
        </g>
    </g>
</svg>