<svg xmlns="http://www.w3.org/2000/svg" width="430" height="430"
    style="width:100%;height:100%;transform:translate3d(0,0,0);content-visibility:visible"
    viewBox="0 0 430 430">
    <defs>
        <clipPath id="c">
            <path d="M0 0h430v430H0z" />
        </clipPath>
        <clipPath id="d">
            <path d="M0 0h500v500H0z" />
        </clipPath>
        <clipPath id="f">
            <path d="M0 0h500v500H0z" />
        </clipPath>
        <filter id="a" width="100%" height="100%" x="0%" y="0%" filterUnits="objectBoundingBox">
            <feComponentTransfer in="SourceGraphic">
                <feFuncA tableValues="1.0 0.0" type="table" />
            </feComponentTransfer>
        </filter>
        <path id="b" fill-opacity="0" stroke="#121331" stroke-linecap="round"
            stroke-linejoin="round" stroke-width="2"
            d="M176.667 0c0 27.614-22.386 50-50 50s-50-22.386-50-50 22.386-50 50-50 50 22.386 50 50z"
            style="display:block" transform="translate(-180.87 250) scale(3.401)" />
        <mask id="e" mask-type="alpha">
            <g filter="url(#a)">
                <path fill="#fff" d="M0 0h500v500H0z" opacity="0" />
                <use xmlnsNs1="http://www.w3.org/1999/xlink" ns1Href="#b" />
            </g>
        </mask>
    </defs>
    <g clipPath="url(#c)">
        <g clipPath="url(#d)" style="display:block" transform="translate(-35 -35)">
            <path fill="#4BB3FD"
                d="M415.975 250c0 91.706-74.344 166.05-166.05 166.05-91.706 0-166.05-74.344-166.05-166.05 0-91.706 74.344-166.05 166.05-166.05 91.706 0 166.05 74.344 166.05 166.05z"
                class="primary" style="display:block" />
            <g mask="url(#e)" style="display:block">
                <g fill="none" clipPath="url(#f)" transform="matrix(.9 0 0 .9 25 25)">
                    <path class="secondary" style="display:none" />
                    <path class="secondary" style="display:none" />
                    <path class="secondary" style="display:none" />
                    <path class="secondary" style="display:none" />
                    <path class="secondary" style="display:none" />
                    <path class="secondary" style="display:none" />
                    <path class="secondary" style="display:none" />
                    <path stroke="#EBE6EF" stroke-linecap="round" stroke-linejoin="round"
                        stroke-width="3"
                        d="M126.667 50c-17.029 0-30.834-22.386-30.834-50s13.805-50 30.834-50m0 100c.083-8.75.166-22.386.166-50s-.083-34.25-.166-50"
                        class="secondary" style="display:block"
                        transform="matrix(3.69 0 0 3.69 -217.487 249.998)" />
                    <path stroke="#EBE6EF" stroke-linecap="round" stroke-linejoin="round"
                        stroke-width="3"
                        d="M126.667 50C144.248 50 158.5 27.614 158.5 0s-14.252-50-31.833-50m-50 50h100"
                        class="secondary" style="display:block"
                        transform="matrix(3.69 0 0 3.69 -217.487 249.998)" />
                    <path stroke="#EBE6EF" stroke-linecap="round" stroke-linejoin="round"
                        stroke-width="3"
                        d="M158.993-38.138c-8.71 4.56-19.99 7.31-32.32 7.31-12.33 0-23.61-2.75-32.33-7.31"
                        class="secondary" style="display:block"
                        transform="matrix(3.69 0 0 3.69 -217.484 249.996)" />
                    <path stroke="#EBE6EF" stroke-linecap="round" stroke-linejoin="round"
                        stroke-width="3"
                        d="M94.343 38.14c8.71-4.56 19.99-7.31 32.32-7.31 12.33 0 23.61 2.75 32.33 7.31"
                        class="secondary" style="display:block"
                        transform="matrix(3.69 0 0 3.69 -217.484 249.997)" />
                </g>
            </g>
            <g opacity=".5" style="mix-blend-mode:multiply;display:block">
                <path fill="#4BB3FD"
                    d="M83.025 166.05c-91.7 0-166.05-74.34-166.05-166.05 0-91.71 74.35-166.05 166.05-166.05-34.47 0-62.41 74.34-62.41 166.05 0 91.71 27.94 166.05 62.41 166.05z"
                    class="primary" opacity="1" style="mix-blend-mode:multiply"
                    transform="translate(167.199 250.296)" />
            </g>
            <path fill="none" stroke="#F24C00" stroke-linecap="round" stroke-linejoin="round"
                stroke-width="10" d="m-18.463-24.329 32.926 43.158" class="tertiary"
                style="display:block" transform="translate(383.653 390.698)" />
            <g fill="#F24C00" style="display:block">
                <path
                    d="m304.292 291.058 37.324 112.654c.552 1.667 2.831 1.864 3.661.316l19.914-37.16 40.992-9.851c1.708-.41 2.095-2.665.622-3.622l-99.525-64.643c-1.585-1.03-3.583.511-2.988 2.306z"
                    class="tertiary" />
                <path
                    d="m30.504 19.902-19.92 37.16c-.83 1.55-3.1 1.35-3.66-.32l-37.32-112.65c-.3-.9.05-1.74.68-2.21l60.22 78.02z"
                    class="tertiary" opacity=".5" style="mix-blend-mode:multiply"
                    transform="translate(334.688 346.966)" />
            </g>
        </g>
    </g>
</svg>