<svg xmlns="http://www.w3.org/2000/svg" xmlnsXlink="http://www.w3.org/1999/xlink"
    viewBox="0 0 430 430" width="430" height="430" preserveAspectRatio="xMidYMid meet"
    style="width: 100%; height: 100%; transform: translate3d(0px, 0px, 0px); content-visibility: visible;">
    <defs>
        <clipPath id="__lottie_element_1305">
            <rect width="430" height="430" x="0" y="0" />
        </clipPath>
        <clipPath id="__lottie_element_1307">
            <path d="M0,0 L430,0 L430,430 L0,430z" />
        </clipPath>
        <g id="__lottie_element_1317">
            <g transform="matrix(1,0,0,1,215,215)" opacity="1" style="display: block;">
                <g opacity="1" transform="matrix(1,0,0,1,59,24.25)">
                    <path stroke-linecap="butt" stroke-linejoin="miter" fill-opacity="0"
                        stroke-miterlimit="4" class="primary" stroke="rgb(18,19,49)"
                        stroke-opacity="1" stroke-width="0"
                        d=" M101,-132.75 C101,-132.75 101,132.75 101,132.75 C101,132.75 -216,132.5 -216,132.5 C-216,132.5 -216,-133 -216,-133 C-216,-133 101,-132.75 101,-132.75z" />
                    <path fill="rgb(255,0,0)" fill-opacity="1"
                        d=" M101,-132.75 C101,-132.75 101,132.75 101,132.75 C101,132.75 -216,132.5 -216,132.5 C-216,132.5 -216,-133 -216,-133 C-216,-133 101,-132.75 101,-132.75z" />
                </g>
            </g>
        </g>
        <mask id="__lottie_element_1317_1" mask-type="alpha">
            <use xmlnsNs1="http://www.w3.org/1999/xlink" ns1Href="#__lottie_element_1317" />
        </mask>
    </defs>
    <g clipPath="url(#__lottie_element_1305)">
        <g clipPath="url(#__lottie_element_1307)" transform="matrix(1,0,0,1,0,0)" opacity="1"
            style="display: block;">
            <g transform="matrix(1,0,0,1,215,215)" opacity="1" style="display: block;">
                <g opacity="1" transform="matrix(1,0,0,1,0,0)">
                    <path class="tertiary" fill="rgb(235,230,238)" fill-opacity="1"
                        d=" M137.7100067138672,-160.1199951171875 C137.7100067138672,-160.1199951171875 -137.7100067138672,-160.1199951171875 -137.7100067138672,-160.1199951171875 C-150.08700561523438,-160.1199951171875 -160.1199951171875,-150.08700561523438 -160.1199951171875,-137.7100067138672 C-160.1199951171875,-137.7100067138672 -160.1199951171875,137.7100067138672 -160.1199951171875,137.7100067138672 C-160.1199951171875,150.08700561523438 -150.08700561523438,160.1199951171875 -137.7100067138672,160.1199951171875 C-137.7100067138672,160.1199951171875 137.7100067138672,160.1199951171875 137.7100067138672,160.1199951171875 C150.08700561523438,160.1199951171875 160.1199951171875,150.08700561523438 160.1199951171875,137.7100067138672 C160.1199951171875,137.7100067138672 160.1199951171875,-137.7100067138672 160.1199951171875,-137.7100067138672 C160.1199951171875,-150.08700561523438 150.08700561523438,-160.1199951171875 137.7100067138672,-160.1199951171875z" />
                </g>
                <g opacity="1" transform="matrix(1,0,0,1,0,-134.75)">
                    <path class="secondary" fill="rgb(57,51,70)" fill-opacity="1"
                        d=" M160.11000061035156,25.704999923706055 C160.11000061035156,25.704999923706055 160.11000061035156,-3.2950000762939453 160.11000061035156,-3.2950000762939453 C160.11000061035156,-3.2950000762939453 160.11000061035156,-3.2950000762939453 160.11000061035156,-3.2950000762939453 C160.11099243164062,-6.236999988555908 159.5330047607422,-9.149999618530273 158.40899658203125,-11.868000030517578 C157.28500366210938,-14.586000442504883 155.63499450683594,-17.055999755859375 153.55599975585938,-19.136999130249023 C151.4770050048828,-21.218000411987305 149.00799560546875,-22.868999481201172 146.29100036621094,-23.996000289916992 C143.57400512695312,-25.12299919128418 140.66200256347656,-25.70400047302246 137.72000122070312,-25.704999923706055 C137.72000122070312,-25.704999923706055 -137.7100067138672,-25.704999923706055 -137.7100067138672,-25.704999923706055 C-140.65199279785156,-25.704999923706055 -143.5659942626953,-25.125 -146.28399658203125,-23.999000549316406 C-149.0019989013672,-22.87299919128418 -151.47300720214844,-21.222000122070312 -153.55299377441406,-19.141000747680664 C-155.63299560546875,-17.059999465942383 -157.2830047607422,-14.58899974822998 -158.4080047607422,-11.869999885559082 C-159.5330047607422,-9.151000022888184 -160.11099243164062,-6.236999988555908 -160.11000061035156,-3.2950000762939453 C-160.11000061035156,-3.2950000762939453 -160.11000061035156,25.704999923706055 -160.11000061035156,25.704999923706055 C-160.11000061035156,25.704999923706055 160.11000061035156,25.704999923706055 160.11000061035156,25.704999923706055z" />
                </g>
                <g opacity="1" transform="matrix(1,0,0,1,-72.06199645996094,-134.43800354003906)">
                    <path stroke-linecap="round" stroke-linejoin="round" fill-opacity="0"
                        class="quinary" stroke="rgb(7,168,137)" stroke-opacity="1" stroke-width="15"
                        d=" M0.06499999761581421,0 C0.06499999761581421,0 -0.06499999761581421,0 -0.06499999761581421,0" />
                </g>
                <g opacity="1" transform="matrix(1,0,0,1,-100.18800354003906,-134.43800354003906)">
                    <path stroke-linecap="round" stroke-linejoin="round" fill-opacity="0"
                        class="quaternary" stroke="rgb(255,198,56)" stroke-opacity="1"
                        stroke-width="15"
                        d=" M0.06499999761581421,0 C0.06499999761581421,0 -0.06499999761581421,0 -0.06499999761581421,0" />
                </g>
                <g opacity="1" transform="matrix(1,0,0,1,-128.18800354003906,-134.43800354003906)">
                    <path stroke-linecap="round" stroke-linejoin="round" fill-opacity="0"
                        class="senary" stroke="rgb(241,75,0)" stroke-opacity="1" stroke-width="15"
                        d=" M0.06499999761581421,0 C0.06499999761581421,0 -0.06499999761581421,0 -0.06499999761581421,0" />
                </g>
            </g>
            <g mask="url(#__lottie_element_1317_1)" style="display: block;">
                <g transform="matrix(1,0,0,1,-35,-319.9454345703125)" opacity="1">
                    <g opacity="1" transform="matrix(1,0,0,1,0,0)">
                        <g opacity="1"
                            transform="matrix(1,0,0,1,153.24400329589844,313.4419860839844)">
                            <path stroke-linecap="round" stroke-linejoin="round" fill-opacity="0"
                                class="primary" stroke="rgb(18,19,48)" stroke-opacity="1"
                                stroke-width="7"
                                d=" M-23.20800018310547,-121 C-23.20800018310547,-121 69.6240005493164,-121 69.6240005493164,-121 M-23.20800018310547,-80.66600036621094 C-23.20800018310547,-80.66600036621094 69.6240005493164,-80.66600036621094 69.6240005493164,-80.66600036621094 M-23.20800018310547,-40.33300018310547 C-23.20800018310547,-40.33300018310547 69.6240005493164,-40.33300018310547 69.6240005493164,-40.33300018310547 M-23.20800018310547,0 C-23.20800018310547,0 23.20800018310547,0 23.20800018310547,0" />
                        </g>
                        <g opacity="1"
                            transform="matrix(1,0,0,1,314.2650146484375,279.5679931640625)">
                            <path class="quaternary" fill="rgb(255,198,56)" fill-opacity="1"
                                d=" M55.69900131225586,88.8740005493164 C55.69900131225586,88.8740005493164 -55.69900131225586,88.8740005493164 -55.69900131225586,88.8740005493164 C-55.69900131225586,88.8740005493164 -55.69900131225586,-88.8740005493164 -55.69900131225586,-88.8740005493164 C-55.69900131225586,-88.8740005493164 55.69900131225586,-88.8740005493164 55.69900131225586,-88.8740005493164 C55.69900131225586,-88.8740005493164 55.69900131225586,88.8740005493164 55.69900131225586,88.8740005493164z" />
                            <path stroke-linecap="round" stroke-linejoin="round" fill-opacity="0"
                                class="primary" stroke="rgb(18,19,48)" stroke-opacity="1"
                                stroke-width="7"
                                d=" M55.69900131225586,88.8740005493164 C55.69900131225586,88.8740005493164 -55.69900131225586,88.8740005493164 -55.69900131225586,88.8740005493164 C-55.69900131225586,88.8740005493164 -55.69900131225586,-88.8740005493164 -55.69900131225586,-88.8740005493164 C-55.69900131225586,-88.8740005493164 55.69900131225586,-88.8740005493164 55.69900131225586,-88.8740005493164 C55.69900131225586,-88.8740005493164 55.69900131225586,88.8740005493164 55.69900131225586,88.8740005493164z" />
                        </g>
                        <g opacity="1"
                            transform="matrix(1,0,0,1,314.2650146484375,279.5679931640625)"
                            style="mix-blend-mode: multiply;">
                            <path stroke-linecap="round" stroke-linejoin="round" fill-opacity="0"
                                class="primary" stroke="rgb(18,19,48)" stroke-opacity="1"
                                stroke-width="7"
                                d=" M55.69900131225586,88.8740005493164 C55.69900131225586,88.8740005493164 -55.69900131225586,88.8740005493164 -55.69900131225586,88.8740005493164 C-55.69900131225586,88.8740005493164 -55.69900131225586,-88.8740005493164 -55.69900131225586,-88.8740005493164 C-55.69900131225586,-88.8740005493164 55.69900131225586,-88.8740005493164 55.69900131225586,-88.8740005493164 C55.69900131225586,-88.8740005493164 55.69900131225586,88.8740005493164 55.69900131225586,88.8740005493164z M-55.69900131225586,-88.8740005493164 C-55.69900131225586,-88.8740005493164 55.69900131225586,88.8740005493164 55.69900131225586,88.8740005493164 M55.69900131225586,-88.8740005493164 C55.69900131225586,-88.8740005493164 -55.69900131225586,88.8740005493164 -55.69900131225586,88.8740005493164" />
                        </g>
                    </g>
                    <g opacity="1" transform="matrix(1,0,0,1,0,294)">
                        <g opacity="1"
                            transform="matrix(1,0,0,1,153.24400329589844,313.4419860839844)">
                            <path stroke-linecap="round" stroke-linejoin="round" fill-opacity="0"
                                class="primary" stroke="rgb(18,19,48)" stroke-opacity="1"
                                stroke-width="7"
                                d=" M-23.20800018310547,-121 C-23.20800018310547,-121 69.6240005493164,-121 69.6240005493164,-121 M-23.20800018310547,-80.66600036621094 C-23.20800018310547,-80.66600036621094 69.6240005493164,-80.66600036621094 69.6240005493164,-80.66600036621094 M-23.20800018310547,-40.33300018310547 C-23.20800018310547,-40.33300018310547 69.6240005493164,-40.33300018310547 69.6240005493164,-40.33300018310547 M-23.20800018310547,0 C-23.20800018310547,0 23.20800018310547,0 23.20800018310547,0" />
                        </g>
                        <g opacity="1"
                            transform="matrix(1,0,0,1,314.2650146484375,279.5679931640625)">
                            <path stroke-linecap="round" stroke-linejoin="round" fill-opacity="0"
                                class="primary" stroke="rgb(18,19,48)" stroke-opacity="1"
                                stroke-width="7"
                                d=" M55.69900131225586,88.8740005493164 C55.69900131225586,88.8740005493164 -55.69900131225586,88.8740005493164 -55.69900131225586,88.8740005493164 C-55.69900131225586,88.8740005493164 -55.69900131225586,-88.8740005493164 -55.69900131225586,-88.8740005493164 C-55.69900131225586,-88.8740005493164 55.69900131225586,-88.8740005493164 55.69900131225586,-88.8740005493164 C55.69900131225586,-88.8740005493164 55.69900131225586,88.8740005493164 55.69900131225586,88.8740005493164z" />
                            <path class="quaternary" fill="rgb(255,198,56)" fill-opacity="1"
                                d=" M55.69900131225586,88.8740005493164 C55.69900131225586,88.8740005493164 -55.69900131225586,88.8740005493164 -55.69900131225586,88.8740005493164 C-55.69900131225586,88.8740005493164 -55.69900131225586,-88.8740005493164 -55.69900131225586,-88.8740005493164 C-55.69900131225586,-88.8740005493164 55.69900131225586,-88.8740005493164 55.69900131225586,-88.8740005493164 C55.69900131225586,-88.8740005493164 55.69900131225586,88.8740005493164 55.69900131225586,88.8740005493164z" />
                        </g>
                        <g opacity="1"
                            transform="matrix(1,0,0,1,314.2650146484375,279.5679931640625)"
                            style="mix-blend-mode: multiply;">
                            <path stroke-linecap="round" stroke-linejoin="round" fill-opacity="0"
                                class="primary" stroke="rgb(18,19,48)" stroke-opacity="1"
                                stroke-width="7"
                                d=" M55.69900131225586,88.8740005493164 C55.69900131225586,88.8740005493164 -55.69900131225586,88.8740005493164 -55.69900131225586,88.8740005493164 C-55.69900131225586,88.8740005493164 -55.69900131225586,-88.8740005493164 -55.69900131225586,-88.8740005493164 C-55.69900131225586,-88.8740005493164 55.69900131225586,-88.8740005493164 55.69900131225586,-88.8740005493164 C55.69900131225586,-88.8740005493164 55.69900131225586,88.8740005493164 55.69900131225586,88.8740005493164z M-55.69900131225586,-88.8740005493164 C-55.69900131225586,-88.8740005493164 55.69900131225586,88.8740005493164 55.69900131225586,88.8740005493164 M55.69900131225586,-88.8740005493164 C55.69900131225586,-88.8740005493164 -55.69900131225586,88.8740005493164 -55.69900131225586,88.8740005493164" />
                        </g>
                    </g>
                </g>
            </g>
            <g transform="matrix(1,0,0,1,215,215)" opacity="1" style="display: block;">
                <path stroke-linecap="round" stroke-linejoin="round" fill-opacity="0"
                    class="primary" stroke="rgb(18,19,48)" stroke-opacity="1" stroke-width="7"
                    d=" M137.7100067138672,-160.1199951171875 C137.7100067138672,-160.1199951171875 -137.7100067138672,-160.1199951171875 -137.7100067138672,-160.1199951171875 C-150.08700561523438,-160.1199951171875 -160.1199951171875,-150.08700561523438 -160.1199951171875,-137.7100067138672 C-160.1199951171875,-137.7100067138672 -160.1199951171875,137.7100067138672 -160.1199951171875,137.7100067138672 C-160.1199951171875,150.08700561523438 -150.08700561523438,160.1199951171875 -137.7100067138672,160.1199951171875 C-137.7100067138672,160.1199951171875 137.7100067138672,160.1199951171875 137.7100067138672,160.1199951171875 C150.08700561523438,160.1199951171875 160.1199951171875,150.08700561523438 160.1199951171875,137.7100067138672 C160.1199951171875,137.7100067138672 160.1199951171875,-137.7100067138672 160.1199951171875,-137.7100067138672 C160.1199951171875,-150.08700561523438 150.08700561523438,-160.1199951171875 137.7100067138672,-160.1199951171875z M160.11,-109.05 C160.11,-109.05 160.11,-138.05 160.11,-138.05 C160.11,-138.05 160.11,-138.05 160.11,-138.05 C160.11,-140.99 159.53,-143.9 158.41,-146.62 C157.29,-149.34 155.63,-151.81 153.56,-153.89 C151.48,-155.97 149.01,-157.62 146.29,-158.75 C143.57,-159.87 140.66,-160.45 137.72,-160.45 C137.72,-160.45 -137.71,-160.45 -137.71,-160.45 C-140.65,-160.45 -143.57,-159.87 -146.28,-158.75 C-149,-157.62 -151.47,-155.97 -153.55,-153.89 C-155.63,-151.81 -157.28,-149.34 -158.41,-146.62 C-159.53,-143.9 -160.11,-140.99 -160.11,-138.05 C-160.11,-138.05 -160.11,-109.05 -160.11,-109.05 C-160.11,-109.05 160.11,-109.05 160.11,-109.05z" />
                <g opacity="1" transform="matrix(1,0,0,1,0,0)" />
                <g opacity="1" transform="matrix(1,0,0,1,0,-134.75)" />
            </g>
        </g>
    </g>
</svg>