<svg width="20" height="25" viewBox="0 0 20 25" fill="none"
    xmlns="http://www.w3.org/2000/svg">
    <path d="M11.3065 8.93411C10.237 8.93411 9.3667 8.064 9.3667 6.99431C9.3667 5.92444 10.2368 5.05432 11.3065 5.05432C12.376 5.05432 13.2463 5.92444 13.2463 6.99431C13.2463 8.06381 12.376 8.93411 11.3065 8.93411ZM11.3065 5.57001C10.5215 5.57001 9.88239 6.20914 9.88239 6.99431C9.88239 7.77967 10.5215 8.41842 11.3065 8.41842C12.0915 8.41842 12.7306 7.77967 12.7306 6.99431C12.7306 6.20895 12.0915 5.57001 11.3065 5.57001Z" fill="white"/>
    <path d="M17.7843 24.2363H4.8284C3.60664 24.2363 2.61328 23.2425 2.61328 22.0212V5.93613C2.61328 5.86767 2.6404 5.80221 2.68884 5.75377L5.83316 2.60925C5.88142 2.561 5.94689 2.53369 6.01553 2.53369H17.7845C19.0062 2.53369 20.0001 3.52744 20.0001 4.7492V22.0207C19.9999 23.2421 19.0058 24.2361 17.7843 24.2361L17.7843 24.2363ZM3.12907 6.043V22.0213C3.12907 22.9583 3.89145 23.7209 4.82869 23.7209H17.7846C18.7223 23.7209 19.4846 22.9585 19.4846 22.0213V4.74971C19.4846 3.81227 18.7223 3.04989 17.7846 3.04989H6.12246L3.12907 6.043Z" fill="white"/>
    <path d="M6.01525 6.19378H2.87093C2.76675 6.19378 2.67248 6.13113 2.63282 6.03461C2.59299 5.9381 2.61524 5.82738 2.68875 5.75368L5.83307 2.60917C5.90714 2.53547 6.01787 2.51266 6.11401 2.55324C6.21014 2.59308 6.27318 2.68716 6.27318 2.79134V5.93586C6.27299 6.07838 6.15777 6.19378 6.01525 6.19378ZM3.4934 5.67809H5.7575L5.75731 3.4138L3.4934 5.67809Z" fill="white"/>
    <path d="M16.7755 12.0886H5.83684C5.69431 12.0886 5.5791 11.9732 5.5791 11.8309C5.5791 11.6883 5.69451 11.5731 5.83684 11.5731H16.7755C16.918 11.5731 17.0332 11.6885 17.0332 11.8309C17.0332 11.9732 16.918 12.0886 16.7755 12.0886Z" fill="white"/>
    <path d="M16.7755 16.2336H5.83684C5.69431 16.2336 5.5791 16.1182 5.5791 15.9759C5.5791 15.8334 5.69451 15.7181 5.83684 15.7181H16.7755C16.918 15.7181 17.0332 15.8335 17.0332 15.9759C17.0332 16.1182 16.918 16.2336 16.7755 16.2336Z" fill="white"/>
    <path d="M16.7755 20.3789H5.83684C5.69431 20.3789 5.5791 20.2635 5.5791 20.1211C5.5791 19.9786 5.69451 19.8634 5.83684 19.8634H16.7755C16.918 19.8634 17.0332 19.9788 17.0332 20.1211C17.0332 20.2635 16.918 20.3789 16.7755 20.3789Z" fill="white"/>
    <path d="M2.87086 21.7027H2.21531C0.993549 21.7027 0.000187039 20.7089 0.000187039 19.4875L0 2.2155C0 0.993937 0.993554 0 2.21531 0H14.8179C16.0396 0 17.033 0.993745 17.033 2.2155V2.79105C17.033 2.93357 16.9176 3.04879 16.7753 3.04879C16.6327 3.04879 16.5175 2.93338 16.5175 2.79105V2.2155C16.5175 1.27807 15.755 0.51569 14.8179 0.51569H2.21533C1.27828 0.51569 0.515709 1.27807 0.515709 2.2155V19.4871C0.515709 20.4241 1.27809 21.1867 2.21533 21.1867H2.87089C3.01341 21.1867 3.12863 21.3021 3.12863 21.4444C3.12863 21.5869 3.01341 21.7023 2.87089 21.7023L2.87086 21.7027Z" fill="white"/>
</svg>
    