<svg width="14" height="14" viewBox="0 0 14 14" fill="none"
    xmlns="http://www.w3.org/2000/svg">
    <path d="M13.4253 4.95086C13.4218 4.09904 13.109 3.27401 12.5387 2.61185C12.7324 1.85501 12.6719 1.06029 12.3659 0.336825C12.3056 0.197557 12.1819 0.0910822 12.0292 0.0465477C11.8128 -0.0230885 10.9943 -0.15365 9.32653 0.86189V0.862092C8.60907 0.684162 7.86921 0.600156 7.12742 0.612505C6.38453 0.599954 5.64341 0.68396 4.92506 0.862092C3.21397 -0.176752 2.32436 -0.00854216 2.14533 0.0408427C1.99171 0.0871976 1.86826 0.195899 1.80858 0.336783C1.50177 1.05781 1.43908 1.8503 1.62953 2.60616C1.04047 3.26484 0.726582 4.10226 0.746162 4.96238C0.746162 8.17203 2.70115 9.14123 4.49266 9.48371C4.40066 9.69504 4.33732 9.91629 4.30436 10.1424C4.30112 10.1665 4.30112 10.191 4.30436 10.2151V11.1029C2.67362 11.2306 2.32455 10.3339 2.29051 10.2323V10.2325C2.28254 10.2088 2.27328 10.1855 2.26251 10.1626C1.94752 9.55903 1.39314 9.09524 0.718149 8.87138C0.435046 8.78251 0.128645 8.92603 0.0341081 9.19201C-0.0604727 9.458 0.0922808 9.74587 0.375384 9.8349C0.749405 9.96181 1.06141 10.2124 1.25269 10.5399C1.469 11.1986 2.35238 12.2405 4.29811 12.1243V12.9601C4.29811 13.2406 4.54006 13.468 4.83868 13.468C5.13708 13.468 5.37924 13.2406 5.37924 12.9601V10.2527C5.42018 9.95693 5.55721 9.68042 5.77137 9.46039C5.92477 9.32557 5.98036 9.11931 5.914 8.93208C5.84764 8.74504 5.67118 8.61124 5.46262 8.58978C3.57851 8.38371 1.83658 7.80056 1.83658 4.94209H1.83637C1.81116 4.24454 2.09793 3.56885 2.62708 3.07899C2.77057 2.93405 2.81797 2.72697 2.75075 2.53933C2.56869 2.04259 2.55684 1.50474 2.71671 1.0013C3.37984 1.14199 4.00271 1.41627 4.54203 1.80514C4.6825 1.89239 4.85767 1.91486 5.01774 1.86607C5.70415 1.66972 6.41947 1.57863 7.13671 1.59624C7.85263 1.57863 8.56712 1.66972 9.25243 1.86607C9.4125 1.91526 9.58788 1.89279 9.72814 1.80514C10.2476 1.43106 10.8422 1.15961 11.4763 1.007C11.6338 1.5161 11.6198 2.05839 11.436 2.5596C11.3746 2.72984 11.4147 2.91809 11.5411 3.0529C12.0524 3.56584 12.342 4.23948 12.3534 4.94212C12.3534 7.79468 10.5219 8.38678 8.72739 8.58981C8.50741 8.61288 8.32492 8.76005 8.26761 8.96085C8.2103 9.16166 8.2898 9.37481 8.46798 9.49828C8.65952 9.63472 8.88186 10.0177 8.88186 10.659V12.9573C8.88186 13.2379 9.12382 13.4652 9.42222 13.4652C9.72084 13.4652 9.96279 13.2379 9.96279 12.9573V10.659C9.96839 10.2547 9.88975 9.85351 9.73118 9.47781C11.1829 9.18774 13.4253 8.29102 13.4253 4.95083L13.4253 4.95086Z" fill="white"/>
</svg>
