<svg width="68" height="84" viewBox="0 0 68 84" fill="none" xmlns="http://www.w3.org/2000/svg">
<path d="M59 0.333252H8.99996C4.41663 0.333252 0.666626 4.08325 0.666626 8.66658V75.3333C0.666626 79.9166 4.41663 83.6666 8.99996 83.6666H59C63.5833 83.6666 67.3333 79.9166 67.3333 75.3333V8.66658C67.3333 4.08325 63.5833 0.333252 59 0.333252ZM59 25.3333H8.99996V8.66658H59V25.3333ZM21.5 41.9999H13.1666V33.6666H21.5V41.9999ZM38.1666 41.9999H29.8333V33.6666H38.1666V41.9999ZM21.5 58.6666H13.1666V50.3333H21.5V58.6666ZM38.1666 58.6666H29.8333V50.3333H38.1666V58.6666ZM21.5 75.3333H13.1666V66.9999H21.5V75.3333ZM38.1666 75.3333H29.8333V66.9999H38.1666V75.3333ZM54.8333 41.9999H46.5V33.6666H54.8333V41.9999ZM54.8333 58.6666H46.5V50.3333H54.8333V58.6666ZM54.8333 75.3333H46.5V66.9999H54.8333V75.3333Z" fill="#0082D8"/>
<path d="M54.8333 12.8333H46.5V21.1666H54.8333V12.8333Z" fill="#0082D8"/>
</svg>
