<svg width="101" height="113" viewBox="0 0 101 113" fill="none" xmlns="http://www.w3.org/2000/svg">
<path d="M99.9568 82.3312C91.0736 77.8673 84.6197 64.3732 84.5557 64.2368C84.5312 64.1848 84.4977 64.1412 84.4693 64.0929C84.2529 63.616 84.0475 63.1399 83.8048 62.6624C78.9331 53.0762 70.0902 45.7269 59.5177 42.4528C57.4552 41.099 37.7659 28.0103 32.2928 18.4072C30.7366 15.675 28.9302 14.1151 26.9245 13.769C25.353 13.5012 24.1473 14.0673 23.5261 14.4625C23.3778 14.355 23.2775 14.2891 23.2551 14.2747C22.5214 13.8092 21.5685 13.9372 20.9769 14.5831C17.9578 17.8742 15.3387 23.3432 14.0706 26.2434C11.539 22.9422 8.945 21.0875 6.33377 20.7726C3.45622 20.4313 1.72814 22.046 1.53922 22.2313C1.02399 22.7382 0.844552 23.5084 1.07966 24.2006C3.1288 30.2408 8.39801 40.17 9.46081 42.1498C8.80871 44.2953 8.21649 46.1802 7.81253 47.45C7.07345 49.7751 7.36601 52.2976 8.61558 54.3707C11.8223 59.6897 17.192 67.375 18.3248 68.9884C19.364 73.7755 20.6321 78.8662 22.1761 83.3744C23.0615 85.9592 25.1993 87.2947 27.0849 88.4731C28.0568 89.08 28.9741 89.6529 29.5314 90.2901C29.5397 90.2997 29.5502 90.306 29.5585 90.3152C30.2918 91.3292 31.3148 92.0969 32.5108 92.4801C37.7329 94.1557 43.6598 95.5072 50.1262 96.4955C56.2881 97.4388 61.8467 99.7749 66.1994 103.248C69.1297 105.588 71.5814 108.346 73.4872 111.446C73.833 112.009 74.4229 112.317 75.0258 112.317C75.3586 112.317 75.695 112.223 75.997 112.027C76.8462 111.475 77.0998 110.319 76.562 109.445C74.4301 105.977 71.6952 102.897 68.4298 100.29C67.2703 99.3653 66.0325 98.518 64.7336 97.7425C65.434 97.6174 66.0365 97.4882 66.4801 97.3827C67.4597 97.1488 68.0697 96.1433 67.8435 95.1367C67.6161 94.1302 66.6437 93.5075 65.6605 93.734C64.2913 94.0595 59.5595 95.0393 56.0999 94.0021C56.0785 93.9959 56.0572 93.9956 56.0359 93.99C54.2985 93.483 52.5064 93.0755 50.6616 92.7933C44.38 91.8318 38.6372 90.5241 33.5933 88.9071C32.8881 88.6804 32.3338 88.0954 32.1111 87.3423C30.7347 82.6957 27.4734 70.8772 26.9073 61.5362C26.88 61.0853 27.0861 60.6393 27.4593 60.3419C29.7997 58.4811 35.7171 53.8905 40.1124 51.4739C40.2558 51.3959 40.4192 51.3594 40.6023 51.3702C42.608 51.4751 48.8737 51.9211 53.2282 53.531C52.0474 55.281 48.9553 57.9242 41.262 56.9578C40.4631 56.8689 39.6896 57.3137 39.3705 58.0765C38.4508 60.2762 36.7102 63.7761 35.7206 64.6682C35.0396 65.2811 34.9033 66.3219 35.3978 67.1017C35.4245 67.1445 38.054 71.3573 36.8435 74.8402C36.5052 75.8139 36.998 76.8851 37.9443 77.2324C38.8907 77.5785 39.9312 77.0727 40.2699 76.1003C40.4386 75.6149 40.56 75.1269 40.6445 74.6408C41.4898 74.3458 43.2676 74.0975 46.0729 75.4332C46.2855 76.3948 46.5463 78.2609 45.9073 80.0768C45.5656 81.0492 46.0541 82.1216 46.9988 82.4738C47.2036 82.5505 47.4126 82.5859 47.6181 82.5859C48.3625 82.5859 49.0609 82.1131 49.3291 81.3514C50.1268 79.0837 50.0067 76.8391 49.7595 75.3303C52.5168 73.5074 62.9888 67.4011 74.5556 71.127C75.5161 71.4353 76.5347 70.8858 76.8357 69.8998C77.1353 68.9127 76.6011 67.8622 75.6429 67.554C72.0108 66.3851 68.5165 66.068 65.278 66.2399C59.9546 64.6647 57.172 60.2894 57.1184 60.2043C56.5842 59.3305 55.465 59.0685 54.6146 59.6133C53.763 60.1616 53.5036 61.3169 54.0353 62.1931C54.1331 62.3536 55.7541 64.961 58.933 67.2241C53.6121 68.5975 49.5867 70.9746 47.8332 72.1446C44.7216 70.6122 42.2962 70.5123 40.6074 70.8219C40.2969 68.9766 39.6498 67.3643 39.1365 66.3169C40.3269 64.6963 41.4828 62.3222 42.1639 60.8148C55.3194 61.9141 57.3672 53.3579 57.4489 52.9802C57.6337 52.1418 57.2392 51.2826 56.493 50.8963C54.8665 50.0535 52.8746 49.4279 50.8345 48.9578C46.2146 43.9433 41.4737 42.4644 41.2743 42.4048C41.0192 42.3267 40.7538 42.311 40.4897 42.3487C39.1014 42.5636 37.7348 42.8253 36.3948 43.1145C34.2056 40.4485 33.5231 38.5994 33.5205 38.5916C33.36 38.1138 33.0195 37.7238 32.5754 37.5082C28.6516 35.6081 26.9888 33.0425 26.3866 31.8304C28.3097 28.2612 28.9428 24.8384 28.2367 21.6415C27.8669 19.9662 27.173 18.5866 26.4194 17.4856C26.949 17.6134 27.9337 18.1589 29.1541 20.3009C35.3476 31.1688 56.8567 45.1552 57.7699 45.7462C57.7834 45.755 57.7985 45.7573 57.812 45.7656C57.94 45.8437 58.0754 45.9119 58.2247 45.9571C67.9737 48.9037 76.1225 55.6246 80.5808 64.3977C83.215 69.5817 84.1045 74.7866 82.9615 78.3206C82.2639 80.4764 79.5989 84.5491 75.1158 86.9352C74.224 87.4093 73.8746 88.539 74.3364 89.4579C74.6598 90.1013 75.2947 90.4693 75.9533 90.4693C76.2351 90.4693 76.5205 90.4024 76.7883 90.2598C81.8884 87.5457 85.3528 82.7809 86.4129 79.5028C86.823 78.2365 87.0256 76.8374 87.065 75.3579C89.9685 79.274 93.8313 83.4191 98.3602 85.6947C98.6172 85.8239 98.8897 85.8847 99.1573 85.8847C99.8301 85.8847 100.478 85.4985 100.793 84.8342C101.234 83.9056 100.859 82.7846 99.9568 82.3312ZM5.07711 24.5101C5.31872 24.4687 5.59707 24.4553 5.90976 24.4906C7.0736 24.6309 9.49458 25.6255 12.6807 30.6518C12.2073 32.6138 11.5949 34.8651 10.9522 37.1082C9.19314 33.6906 6.61293 28.4873 5.07711 24.5101ZM11.7075 52.3964C11.0253 51.2656 10.8666 49.886 11.2711 48.6137C12.8167 43.7551 15.5622 34.8467 16.694 29.4311C17.0955 28.4317 19.5697 22.4226 22.5208 18.49C23.3156 19.326 24.2891 20.6617 24.6889 22.4713C25.2598 25.0537 24.5408 27.9784 22.5522 31.1628C22.3982 31.4088 22.3028 31.6879 22.2731 31.9792C22.2643 32.0633 21.3967 40.3781 19.2375 44.3485C18.9343 44.9066 18.9283 45.5842 19.2221 46.1472L20.3087 48.2301C19.886 48.4067 19.482 48.5775 19.1209 48.7344C16.582 49.8373 15.127 52.6535 15.6617 55.4284C15.8305 56.3058 16.0117 57.2734 16.2066 58.313C16.2972 58.7966 16.3922 59.3025 16.4895 59.8198C14.8232 57.3357 13.0524 54.6276 11.7075 52.3964ZM40.5904 46.1204C41.1576 46.3415 42.3746 46.8834 43.8708 47.8629C42.635 47.7428 41.5676 47.6723 40.7887 47.6315C39.9496 47.5803 39.1228 47.7729 38.3979 48.1713C33.9263 50.6306 28.2309 54.997 25.2337 57.3806C23.9048 58.4373 23.1727 60.0788 23.2758 61.7703C23.7357 69.3542 25.868 78.3901 27.4572 84.2775C26.5979 83.6566 25.9006 82.9857 25.6074 82.1302C22.8874 74.1859 21.0165 64.2075 19.7795 57.6037C19.5827 56.5568 19.4004 55.5844 19.2304 54.702C19.0267 53.6419 19.5638 52.6061 20.5356 52.1831C24.426 50.4941 32.1489 47.4889 40.5904 46.1204ZM30.3907 40.5743C30.7247 41.3106 31.3713 42.5319 32.4748 44.0609C29.2019 44.9388 26.2209 45.9439 23.7317 46.8763L22.8772 45.2381C24.0386 42.6778 24.8073 39.2858 25.2787 36.6232C26.4521 37.9462 28.0992 39.367 30.3907 40.5743Z" fill="white"/>
<path d="M99.9568 82.3312C91.0736 77.8673 84.6197 64.3732 84.5557 64.2368C84.5312 64.1848 84.4977 64.1412 84.4693 64.0929C84.2529 63.616 84.0475 63.1399 83.8048 62.6624C78.9331 53.0762 70.0902 45.7269 59.5177 42.4528C57.4552 41.099 37.7659 28.0103 32.2928 18.4072C30.7366 15.675 28.9302 14.1151 26.9245 13.769C25.353 13.5012 24.1473 14.0673 23.5261 14.4625C23.3778 14.355 23.2775 14.2891 23.2551 14.2747C22.5214 13.8092 21.5685 13.9372 20.9769 14.5831C17.9578 17.8742 15.3387 23.3432 14.0706 26.2434C11.539 22.9422 8.945 21.0875 6.33377 20.7726C3.45622 20.4313 1.72814 22.046 1.53922 22.2313C1.02399 22.7382 0.844552 23.5084 1.07966 24.2006C3.1288 30.2408 8.39801 40.17 9.46081 42.1498C8.80871 44.2953 8.21649 46.1802 7.81253 47.45C7.07345 49.7751 7.36601 52.2976 8.61558 54.3707C11.8223 59.6897 17.192 67.375 18.3248 68.9884C19.364 73.7755 20.6321 78.8662 22.1761 83.3744C23.0615 85.9592 25.1993 87.2947 27.0849 88.4731C28.0568 89.08 28.9741 89.6529 29.5314 90.2901C29.5397 90.2997 29.5502 90.306 29.5585 90.3152C30.2918 91.3292 31.3148 92.0969 32.5108 92.4801C37.7329 94.1557 43.6598 95.5072 50.1262 96.4955C56.2881 97.4388 61.8467 99.7749 66.1994 103.248C69.1297 105.588 71.5814 108.346 73.4872 111.446C73.833 112.009 74.4229 112.317 75.0258 112.317C75.3586 112.317 75.695 112.223 75.997 112.027C76.8462 111.475 77.0998 110.319 76.562 109.445C74.4301 105.977 71.6952 102.897 68.4298 100.29C67.2703 99.3653 66.0325 98.518 64.7336 97.7425C65.434 97.6174 66.0365 97.4882 66.4801 97.3827C67.4597 97.1488 68.0697 96.1433 67.8435 95.1367C67.6161 94.1302 66.6437 93.5075 65.6605 93.734C64.2913 94.0595 59.5595 95.0393 56.0999 94.0021C56.0785 93.9959 56.0572 93.9956 56.0359 93.99C54.2985 93.483 52.5064 93.0755 50.6616 92.7933C44.38 91.8318 38.6372 90.5241 33.5933 88.9071C32.8881 88.6804 32.3338 88.0954 32.1111 87.3423C30.7347 82.6957 27.4734 70.8772 26.9073 61.5362C26.88 61.0853 27.0861 60.6393 27.4593 60.3419C29.7997 58.4811 35.7171 53.8905 40.1124 51.4739C40.2558 51.3959 40.4192 51.3594 40.6023 51.3702C42.608 51.4751 48.8737 51.9211 53.2282 53.531C52.0474 55.281 48.9553 57.9242 41.262 56.9578C40.4631 56.8689 39.6896 57.3137 39.3705 58.0765C38.4508 60.2762 36.7102 63.7761 35.7206 64.6682C35.0396 65.2811 34.9033 66.3219 35.3978 67.1017C35.4245 67.1445 38.054 71.3573 36.8435 74.8402C36.5052 75.8139 36.998 76.8851 37.9443 77.2324C38.8907 77.5785 39.9312 77.0727 40.2699 76.1003C40.4386 75.6149 40.56 75.1269 40.6445 74.6408C41.4898 74.3458 43.2676 74.0975 46.0729 75.4332C46.2855 76.3948 46.5463 78.2609 45.9073 80.0768C45.5656 81.0492 46.0541 82.1216 46.9988 82.4738C47.2036 82.5505 47.4126 82.5859 47.6181 82.5859C48.3625 82.5859 49.0609 82.1131 49.3291 81.3514C50.1268 79.0837 50.0067 76.8391 49.7595 75.3303C52.5168 73.5074 62.9888 67.4011 74.5556 71.127C75.5161 71.4353 76.5347 70.8858 76.8357 69.8998C77.1353 68.9127 76.6011 67.8622 75.6429 67.554C72.0108 66.3851 68.5165 66.068 65.278 66.2399C59.9546 64.6647 57.172 60.2894 57.1184 60.2043C56.5842 59.3305 55.465 59.0685 54.6146 59.6133C53.763 60.1616 53.5036 61.3169 54.0353 62.1931C54.1331 62.3536 55.7541 64.961 58.933 67.2241C53.6121 68.5975 49.5867 70.9746 47.8332 72.1446C44.7216 70.6122 42.2962 70.5123 40.6074 70.8219C40.2969 68.9766 39.6498 67.3643 39.1365 66.3169C40.3269 64.6963 41.4828 62.3222 42.1639 60.8148C55.3194 61.9141 57.3672 53.3579 57.4489 52.9802C57.6337 52.1418 57.2392 51.2826 56.493 50.8963C54.8665 50.0535 52.8746 49.4279 50.8345 48.9578C46.2146 43.9433 41.4737 42.4644 41.2743 42.4048C41.0192 42.3267 40.7538 42.311 40.4897 42.3487C39.1014 42.5636 37.7348 42.8253 36.3948 43.1145C34.2056 40.4485 33.5231 38.5994 33.5205 38.5916C33.36 38.1138 33.0195 37.7238 32.5754 37.5082C28.6516 35.6081 26.9888 33.0425 26.3866 31.8304C28.3097 28.2612 28.9428 24.8384 28.2367 21.6415C27.8669 19.9662 27.173 18.5866 26.4194 17.4856C26.949 17.6134 27.9337 18.1589 29.1541 20.3009C35.3476 31.1688 56.8567 45.1552 57.7699 45.7462C57.7834 45.755 57.7985 45.7573 57.812 45.7656C57.94 45.8437 58.0754 45.9119 58.2247 45.9571C67.9737 48.9037 76.1225 55.6246 80.5808 64.3977C83.215 69.5817 84.1045 74.7866 82.9615 78.3206C82.2639 80.4764 79.5989 84.5491 75.1158 86.9352C74.224 87.4093 73.8746 88.539 74.3364 89.4579C74.6598 90.1013 75.2947 90.4693 75.9533 90.4693C76.2351 90.4693 76.5205 90.4024 76.7883 90.2598C81.8884 87.5457 85.3528 82.7809 86.4129 79.5028C86.823 78.2365 87.0256 76.8374 87.065 75.3579C89.9685 79.274 93.8313 83.4191 98.3602 85.6947C98.6172 85.8239 98.8897 85.8847 99.1573 85.8847C99.8301 85.8847 100.478 85.4985 100.793 84.8342C101.234 83.9056 100.859 82.7846 99.9568 82.3312ZM5.07711 24.5101C5.31872 24.4687 5.59707 24.4553 5.90976 24.4906C7.0736 24.6309 9.49458 25.6255 12.6807 30.6518C12.2073 32.6138 11.5949 34.8651 10.9522 37.1082C9.19314 33.6906 6.61293 28.4873 5.07711 24.5101ZM11.7075 52.3964C11.0253 51.2656 10.8666 49.886 11.2711 48.6137C12.8167 43.7551 15.5622 34.8467 16.694 29.4311C17.0955 28.4317 19.5697 22.4226 22.5208 18.49C23.3156 19.326 24.2891 20.6617 24.6889 22.4713C25.2598 25.0537 24.5408 27.9784 22.5522 31.1628C22.3982 31.4088 22.3028 31.6879 22.2731 31.9792C22.2643 32.0633 21.3967 40.3781 19.2375 44.3485C18.9343 44.9066 18.9283 45.5842 19.2221 46.1472L20.3087 48.2301C19.886 48.4067 19.482 48.5775 19.1209 48.7344C16.582 49.8373 15.127 52.6535 15.6617 55.4284C15.8305 56.3058 16.0117 57.2734 16.2066 58.313C16.2972 58.7966 16.3922 59.3025 16.4895 59.8198C14.8232 57.3357 13.0524 54.6276 11.7075 52.3964ZM40.5904 46.1204C41.1576 46.3415 42.3746 46.8834 43.8708 47.8629C42.635 47.7428 41.5676 47.6723 40.7887 47.6315C39.9496 47.5803 39.1228 47.7729 38.3979 48.1713C33.9263 50.6306 28.2309 54.997 25.2337 57.3806C23.9048 58.4373 23.1727 60.0788 23.2758 61.7703C23.7357 69.3542 25.868 78.3901 27.4572 84.2775C26.5979 83.6566 25.9006 82.9857 25.6074 82.1302C22.8874 74.1859 21.0165 64.2075 19.7795 57.6037C19.5827 56.5568 19.4004 55.5844 19.2304 54.702C19.0267 53.6419 19.5638 52.6061 20.5356 52.1831C24.426 50.4941 32.1489 47.4889 40.5904 46.1204ZM30.3907 40.5743C30.7247 41.3106 31.3713 42.5319 32.4748 44.0609C29.2019 44.9388 26.2209 45.9439 23.7317 46.8763L22.8772 45.2381C24.0386 42.6778 24.8073 39.2858 25.2787 36.6232C26.4521 37.9462 28.0992 39.367 30.3907 40.5743Z" fill="url(#paint0_linear)"/>
<path d="M26.1036 10.3791C26.3002 10.4486 26.5009 10.4815 26.6976 10.4815C27.452 10.4815 28.1574 9.99525 28.4173 9.22018L30.4954 3.02946C30.8235 2.05333 30.3195 0.987012 29.3696 0.649447C28.4203 0.314319 27.3833 0.831026 27.0559 1.80838L24.9778 7.9991C24.6497 8.97524 25.1537 10.0416 26.1036 10.3791Z" fill="white"/>
<path d="M26.1036 10.3791C26.3002 10.4486 26.5009 10.4815 26.6976 10.4815C27.452 10.4815 28.1574 9.99525 28.4173 9.22018L30.4954 3.02946C30.8235 2.05333 30.3195 0.987012 29.3696 0.649447C28.4203 0.314319 27.3833 0.831026 27.0559 1.80838L24.9778 7.9991C24.6497 8.97524 25.1537 10.0416 26.1036 10.3791Z" fill="url(#paint1_linear)"/>
<path d="M18.2148 11.3004C18.4908 12.0486 19.1825 12.5093 19.9169 12.5093C20.1306 12.5093 20.3492 12.4703 20.5612 12.3874C21.5004 12.0218 21.9736 10.9409 21.6177 9.97447L18.8017 2.33112C18.4452 1.36473 17.3946 0.876057 16.4554 1.24409C15.5161 1.60968 15.0429 2.69062 15.3989 3.65701L18.2148 11.3004Z" fill="white"/>
<path d="M18.2148 11.3004C18.4908 12.0486 19.1825 12.5093 19.9169 12.5093C20.1306 12.5093 20.3492 12.4703 20.5612 12.3874C21.5004 12.0218 21.9736 10.9409 21.6177 9.97447L18.8017 2.33112C18.4452 1.36473 17.3946 0.876057 16.4554 1.24409C15.5161 1.60968 15.0429 2.69062 15.3989 3.65701L18.2148 11.3004Z" fill="url(#paint2_linear)"/>
<path d="M5.55713 9.95883L13.1375 15.7303C13.4626 15.9777 13.8422 16.0972 14.2182 16.0972C14.7749 16.0972 15.3251 15.8352 15.6816 15.3392C16.2797 14.508 16.1092 13.3357 15.3014 12.7203L7.72107 6.94878C6.91508 6.3358 5.77447 6.51007 5.17692 7.33997C4.57879 8.17108 4.74935 9.34341 5.55713 9.95883Z" fill="white"/>
<path d="M5.55713 9.95883L13.1375 15.7303C13.4626 15.9777 13.8422 16.0972 14.2182 16.0972C14.7749 16.0972 15.3251 15.8352 15.6816 15.3392C16.2797 14.508 16.1092 13.3357 15.3014 12.7203L7.72107 6.94878C6.91508 6.3358 5.77447 6.51007 5.17692 7.33997C4.57879 8.17108 4.74935 9.34341 5.55713 9.95883Z" fill="url(#paint3_linear)"/>
<path d="M90.8928 17.918C91.5013 17.918 91.9938 17.4113 91.9938 16.7853C91.9938 16.1592 91.5013 15.6525 90.8928 15.6525H87.5898V7.72306C87.5898 7.09755 87.0973 6.59029 86.4888 6.59029C85.8803 6.59029 85.3878 7.09755 85.3878 7.72306V15.6525H77.2843L72.0038 7.11465C71.7404 6.691 71.2339 6.49242 70.7673 6.6356C70.2974 6.77618 69.9738 7.2192 69.9738 7.72306V15.6525H66.6708C66.0623 15.6525 65.5698 16.1592 65.5698 16.7853C65.5698 17.4113 66.0623 17.918 66.6708 17.918H69.9738V21.3163H66.6708C66.0623 21.3163 65.5698 21.823 65.5698 22.4491C65.5698 23.0751 66.0623 23.5819 66.6708 23.5819H69.9738V32.644C69.9738 33.2701 70.4663 33.7768 71.0748 33.7768C71.6833 33.7768 72.1758 33.2701 72.1758 32.644V23.5819H79.5787L85.5598 33.2524C85.7662 33.5855 86.119 33.7768 86.4888 33.7768C86.591 33.7768 86.6952 33.7625 86.7963 33.7315C87.2662 33.5909 87.5898 33.1473 87.5898 32.644V23.5819H90.8928C91.5013 23.5819 91.9938 23.0751 91.9938 22.4491C91.9938 21.823 91.5013 21.3163 90.8928 21.3163H87.5898V17.918H90.8928ZM72.1758 11.6126L74.6744 15.6525H72.1758V11.6126ZM72.1758 21.3163V17.918H76.0756L78.1775 21.3163H72.1758ZM85.3878 28.7546L82.1884 23.5819H85.3878V28.7546ZM85.3878 21.3163H80.7872L78.6855 17.918H85.3878V21.3163Z" fill="white"/>
<path d="M90.8928 17.918C91.5013 17.918 91.9938 17.4113 91.9938 16.7853C91.9938 16.1592 91.5013 15.6525 90.8928 15.6525H87.5898V7.72306C87.5898 7.09755 87.0973 6.59029 86.4888 6.59029C85.8803 6.59029 85.3878 7.09755 85.3878 7.72306V15.6525H77.2843L72.0038 7.11465C71.7404 6.691 71.2339 6.49242 70.7673 6.6356C70.2974 6.77618 69.9738 7.2192 69.9738 7.72306V15.6525H66.6708C66.0623 15.6525 65.5698 16.1592 65.5698 16.7853C65.5698 17.4113 66.0623 17.918 66.6708 17.918H69.9738V21.3163H66.6708C66.0623 21.3163 65.5698 21.823 65.5698 22.4491C65.5698 23.0751 66.0623 23.5819 66.6708 23.5819H69.9738V32.644C69.9738 33.2701 70.4663 33.7768 71.0748 33.7768C71.6833 33.7768 72.1758 33.2701 72.1758 32.644V23.5819H79.5787L85.5598 33.2524C85.7662 33.5855 86.119 33.7768 86.4888 33.7768C86.591 33.7768 86.6952 33.7625 86.7963 33.7315C87.2662 33.5909 87.5898 33.1473 87.5898 32.644V23.5819H90.8928C91.5013 23.5819 91.9938 23.0751 91.9938 22.4491C91.9938 21.823 91.5013 21.3163 90.8928 21.3163H87.5898V17.918H90.8928ZM72.1758 11.6126L74.6744 15.6525H72.1758V11.6126ZM72.1758 21.3163V17.918H76.0756L78.1775 21.3163H72.1758ZM85.3878 28.7546L82.1884 23.5819H85.3878V28.7546ZM85.3878 21.3163H80.7872L78.6855 17.918H85.3878V21.3163Z" fill="url(#paint4_linear)"/>
<defs>
<linearGradient id="paint0_linear" x1="0.977783" y1="112.317" x2="109.678" y2="101.553" gradientUnits="userSpaceOnUse">
<stop stop-color="#0059B0"/>
<stop offset="1" stop-color="#0096E0"/>
</linearGradient>
<linearGradient id="paint1_linear" x1="24.8776" y1="10.4815" x2="31.1343" y2="10.1298" gradientUnits="userSpaceOnUse">
<stop stop-color="#0059B0"/>
<stop offset="1" stop-color="#0096E0"/>
</linearGradient>
<linearGradient id="paint2_linear" x1="15.2804" y1="12.5093" x2="22.3449" y2="12.1181" gradientUnits="userSpaceOnUse">
<stop stop-color="#0059B0"/>
<stop offset="1" stop-color="#0096E0"/>
</linearGradient>
<linearGradient id="paint3_linear" x1="4.8197" y1="16.0972" x2="16.9733" y2="14.6977" gradientUnits="userSpaceOnUse">
<stop stop-color="#0059B0"/>
<stop offset="1" stop-color="#0096E0"/>
</linearGradient>
<linearGradient id="paint4_linear" x1="65.5698" y1="33.7768" x2="94.3153" y2="31.0485" gradientUnits="userSpaceOnUse">
<stop stop-color="#0059B0"/>
<stop offset="1" stop-color="#0096E0"/>
</linearGradient>
</defs>
</svg>
