<svg width="15" height="15" viewBox="0 0 15 15" fill="none" xmlns="http://www.w3.org/2000/svg">
<path d="M11.3674 0.630371H3.41757C2.69252 0.631291 1.9974 0.92081 1.4848 1.43578C0.972038 1.9506 0.68376 2.64873 0.682861 3.37692V11.3611C0.683777 12.0893 0.97205 12.7874 1.4848 13.3023C1.9974 13.8172 2.69252 14.1068 3.41757 14.1077H11.3674C12.0924 14.1067 12.7876 13.8172 13.3002 13.3023C13.8129 12.7874 14.1012 12.0893 14.1021 11.3611V3.37692C14.1012 2.64873 13.8129 1.9506 13.3002 1.43578C12.7876 0.920798 12.0924 0.631274 11.3674 0.630371ZM3.41757 1.72899H11.3674C11.8025 1.72945 12.2195 1.90325 12.5271 2.21222C12.8347 2.52106 13.0078 2.93994 13.0082 3.37692V6.81975H10.5039C10.3336 5.82966 9.70624 4.97933 8.81273 4.52732C7.91938 4.07532 6.86546 4.07532 5.97195 4.52732C5.0786 4.97933 4.45122 5.82962 4.28077 6.81975H1.77663V3.37692C1.77709 2.93994 1.95014 2.52109 2.25778 2.21222C2.56529 1.90324 2.98236 1.72942 3.41746 1.72899H3.41757ZM9.46519 7.36921C9.46519 7.92143 9.24682 8.45096 8.85813 8.84136C8.46944 9.23176 7.94219 9.45105 7.39232 9.45105C6.84245 9.45105 6.31524 9.23173 5.92652 8.84136C5.5378 8.45099 5.31945 7.92146 5.31945 7.36921C5.31945 6.81696 5.53783 6.28747 5.92652 5.89707C6.3152 5.50666 6.84245 5.28737 7.39232 5.28737C7.94184 5.28798 8.46882 5.50746 8.85735 5.89785C9.24604 6.28807 9.46457 6.81731 9.46519 7.36921ZM11.3673 13.0094H3.4175C2.9824 13.009 2.56536 12.8352 2.25782 12.5262C1.95017 12.2174 1.7771 11.7985 1.77667 11.3615V7.91868H4.28096C4.45127 8.90877 5.07864 9.7591 5.97215 10.2111C6.8655 10.6631 7.91942 10.6631 8.81293 10.2111C9.70628 9.7591 10.3337 8.90881 10.5041 7.91868H13.0084V11.3615H13.0083C13.0078 11.7985 12.8347 12.2173 12.5273 12.5262C12.2196 12.8352 11.8025 13.009 11.3674 13.0094H11.3673ZM10.0786 3.18152C10.0784 3.03576 10.1359 2.89598 10.2386 2.79299C10.3412 2.68984 10.4804 2.63206 10.6255 2.63221H11.3466C11.6486 2.63221 11.8935 2.87805 11.8935 3.18152C11.8935 3.48483 11.6486 3.73083 11.3466 3.73083H10.6255C10.4804 3.73083 10.3412 3.67304 10.2386 3.5699C10.1359 3.4669 10.0784 3.32712 10.0786 3.18152Z" fill="black"/>
</svg>
