<?xml version="1.0" encoding="UTF-8"?>
<svg width="700pt" height="700pt" version="1.1" viewBox="0 0 700 700" xmlns="http://www.w3.org/2000/svg" xmlns:xlink="http://www.w3.org/1999/xlink">
 <defs>
  <symbol id="m" overflow="visible">
   <path d="m33.5-2c-1.7305 0.89844-3.5312 1.5703-5.4062 2.0156-1.8672 0.45703-3.8203 0.6875-5.8594 0.6875-6.0625 0-10.871-1.6914-14.422-5.0781-3.5547-3.3945-5.3281-8-5.3281-13.812 0-5.8203 1.7734-10.43 5.3281-13.828 3.5508-3.3945 8.3594-5.0938 14.422-5.0938 2.0391 0 3.9922 0.23047 5.8594 0.6875 1.875 0.44922 3.6758 1.1211 5.4062 2.0156v7.5469c-1.7422-1.1875-3.4609-2.0547-5.1562-2.6094-1.6875-0.55078-3.4688-0.82812-5.3438-0.82812-3.3555 0-5.9961 1.0742-7.9219 3.2188-1.918 2.1484-2.875 5.1094-2.875 8.8906 0 3.7617 0.95703 6.7148 2.875 8.8594 1.9258 2.1484 4.5664 3.2188 7.9219 3.2188 1.875 0 3.6562-0.27344 5.3438-0.82812 1.6953-0.55078 3.4141-1.4219 5.1562-2.6094z"/>
  </symbol>
  <symbol id="b" overflow="visible">
   <path d="m24.516-19.891c-0.77344-0.36328-1.5391-0.62891-2.2969-0.79688-0.75-0.17578-1.5078-0.26562-2.2656-0.26562-2.25 0-3.9844 0.72656-5.2031 2.1719-1.2109 1.4375-1.8125 3.5-1.8125 6.1875v12.594h-8.7344v-27.344h8.7344v4.4844c1.125-1.7812 2.4141-3.082 3.875-3.9062 1.457-0.82031 3.2031-1.2344 5.2344-1.2344 0.28906 0 0.60938 0.011719 0.95312 0.03125 0.34375 0.023438 0.83594 0.074219 1.4844 0.15625z"/>
  </symbol>
  <symbol id="a" overflow="visible">
   <path d="m31.5-13.75v2.5h-20.438c0.20703 2.0547 0.94531 3.5898 2.2188 4.6094 1.2695 1.0234 3.0469 1.5312 5.3281 1.5312 1.832 0 3.7109-0.26953 5.6406-0.8125 1.9375-0.53906 3.9219-1.3672 5.9531-2.4844v6.75c-2.0742 0.78125-4.1406 1.3711-6.2031 1.7656s-4.1328 0.59375-6.2031 0.59375c-4.9492 0-8.793-1.2539-11.531-3.7656-2.7422-2.5195-4.1094-6.0469-4.1094-10.578 0-4.4688 1.3438-7.9766 4.0312-10.531 2.6953-2.5508 6.4062-3.8281 11.125-3.8281 4.2891 0 7.7266 1.2969 10.312 3.8906 2.582 2.5859 3.875 6.0391 3.875 10.359zm-8.9844-2.9062c0-1.6562-0.48438-2.9883-1.4531-4-0.96875-1.0195-2.2344-1.5312-3.7969-1.5312-1.6992 0-3.0781 0.47656-4.1406 1.4219-1.0547 0.94922-1.7109 2.3203-1.9688 4.1094z"/>
  </symbol>
  <symbol id="h" overflow="visible">
   <path d="m16.453-12.312c-1.8242 0-3.1953 0.3125-4.1094 0.9375-0.91797 0.61719-1.375 1.5273-1.375 2.7344 0 1.1055 0.36719 1.9688 1.1094 2.5938 0.73828 0.625 1.7656 0.9375 3.0781 0.9375 1.6445 0 3.0312-0.58594 4.1562-1.7656 1.125-1.1758 1.6875-2.6484 1.6875-4.4219v-1.0156zm13.359-3.2812v15.594h-8.8125v-4.0469c-1.1797 1.6562-2.5 2.8672-3.9688 3.625-1.4609 0.75-3.2422 1.125-5.3438 1.125-2.8242 0-5.1211-0.82031-6.8906-2.4688-1.7617-1.6562-2.6406-3.8008-2.6406-6.4375 0-3.207 1.0977-5.5547 3.2969-7.0469 2.207-1.5 5.6719-2.25 10.391-2.25h5.1562v-0.6875c0-1.3828-0.54688-2.3945-1.6406-3.0312-1.0938-0.64453-2.793-0.96875-5.0938-0.96875-1.875 0-3.6211 0.1875-5.2344 0.5625-1.6172 0.375-3.1094 0.93359-4.4844 1.6719v-6.6562c1.8633-0.45703 3.7383-0.80078 5.625-1.0312 1.8945-0.23828 3.7852-0.35938 5.6719-0.35938 4.9375 0 8.5 0.97656 10.688 2.9219 2.1875 1.9375 3.2812 5.1016 3.2812 9.4844z"/>
  </symbol>
  <symbol id="g" overflow="visible">
   <path d="m13.75-35.109v7.7656h9v6.25h-9v11.594c0 1.2734 0.25 2.1328 0.75 2.5781 0.50781 0.44922 1.5078 0.67188 3 0.67188h4.5v6.25h-7.5c-3.4492 0-5.8984-0.71875-7.3438-2.1562-1.4375-1.4453-2.1562-3.8945-2.1562-7.3438v-11.594h-4.3438v-6.25h4.3438v-7.7656z"/>
  </symbol>
  <symbol id="f" overflow="visible">
   <path d="m22.797-23.344v-14.641h8.7969v37.984h-8.7969v-3.9531c-1.1992 1.6172-2.5234 2.7969-3.9688 3.5469-1.4492 0.73828-3.125 1.1094-5.0312 1.1094-3.375 0-6.1484-1.3359-8.3125-4.0156-2.1562-2.6758-3.2344-6.1172-3.2344-10.328 0-4.2188 1.0781-7.6641 3.2344-10.344 2.1641-2.6758 4.9375-4.0156 8.3125-4.0156 1.8828 0 3.5547 0.38281 5.0156 1.1406 1.457 0.75 2.7852 1.9219 3.9844 3.5156zm-5.75 17.703c1.8633 0 3.2852-0.67969 4.2656-2.0469 0.98828-1.3633 1.4844-3.3477 1.4844-5.9531 0-2.6016-0.49609-4.5859-1.4844-5.9531-0.98047-1.375-2.4023-2.0625-4.2656-2.0625-1.8555 0-3.2773 0.6875-4.2656 2.0625-0.99219 1.3672-1.4844 3.3516-1.4844 5.9531 0 2.6055 0.49219 4.5898 1.4844 5.9531 0.98828 1.3672 2.4102 2.0469 4.2656 2.0469z"/>
  </symbol>
  <symbol id="e" overflow="visible">
   <path d="m18.75-5.6406c1.875 0 3.3008-0.67969 4.2812-2.0469 0.98828-1.3633 1.4844-3.3477 1.4844-5.9531 0-2.6016-0.49609-4.5859-1.4844-5.9531-0.98047-1.375-2.4062-2.0625-4.2812-2.0625s-3.3125 0.6875-4.3125 2.0625-1.5 3.3594-1.5 5.9531c0 2.5859 0.5 4.5625 1.5 5.9375s2.4375 2.0625 4.3125 2.0625zm-5.8125-17.703c1.207-1.5938 2.5391-2.7656 4-3.5156 1.4688-0.75781 3.1562-1.1406 5.0625-1.1406 3.3633 0 6.1289 1.3398 8.2969 4.0156 2.1641 2.6797 3.25 6.125 3.25 10.344 0 4.2109-1.0859 7.6523-3.25 10.328-2.168 2.6797-4.9336 4.0156-8.2969 4.0156-1.9062 0-3.5938-0.375-5.0625-1.125-1.4609-0.75781-2.793-1.9375-4-3.5312v3.9531h-8.7344v-37.984h8.7344z"/>
  </symbol>
  <symbol id="d" overflow="visible">
   <path d="m0.60938-27.344h8.7344l7.3594 18.547 6.25-18.547h8.7344l-11.5 29.938c-1.1562 3.0391-2.5078 5.1641-4.0469 6.375-1.5312 1.2188-3.5586 1.8281-6.0781 1.8281h-5.0625v-5.75h2.7344c1.4883 0 2.5664-0.23438 3.2344-0.70312 0.67578-0.46875 1.2031-1.3125 1.5781-2.5312l0.25-0.76562z"/>
  </symbol>
  <symbol id="c" overflow="visible">
   <path d="m4.2031-27.344h8.7344v27.344h-8.7344zm0-10.641h8.7344v7.125h-8.7344z"/>
  </symbol>
  <symbol id="l" overflow="visible">
   <path d="m0.75-27.344h8.75l6.8125 18.891 6.7812-18.891h8.7656l-10.766 27.344h-9.5938z"/>
  </symbol>
  <symbol id="k" overflow="visible">
   <path d="m26.297-26.484v7.125c-1.1875-0.8125-2.3828-1.4102-3.5781-1.7969-1.1992-0.39453-2.4375-0.59375-3.7188-0.59375-2.4492 0-4.3555 0.71484-5.7188 2.1406-1.3555 1.418-2.0312 3.4062-2.0312 5.9688 0 2.5547 0.67578 4.543 2.0312 5.9688 1.3633 1.418 3.2695 2.125 5.7188 2.125 1.3633 0 2.6602-0.20312 3.8906-0.60938 1.2266-0.40625 2.3633-1.0039 3.4062-1.7969v7.1406c-1.3672 0.51172-2.7578 0.89062-4.1719 1.1406-1.4062 0.25-2.8203 0.375-4.2344 0.375-4.9297 0-8.7812-1.2656-11.562-3.7969s-4.1719-6.0469-4.1719-10.547c0-4.5078 1.3906-8.0312 4.1719-10.562s6.6328-3.7969 11.562-3.7969c1.4375 0 2.8477 0.125 4.2344 0.375 1.3945 0.25 2.7852 0.63281 4.1719 1.1406z"/>
  </symbol>
  <symbol id="j" overflow="visible">
   <path d="m17.219-21.75c-1.9375 0-3.418 0.69922-4.4375 2.0938-1.0234 1.3867-1.5312 3.3906-1.5312 6.0156 0 2.6172 0.50781 4.6211 1.5312 6.0156 1.0195 1.3867 2.5 2.0781 4.4375 2.0781 1.8945 0 3.3477-0.69141 4.3594-2.0781 1.0078-1.3945 1.5156-3.3984 1.5156-6.0156 0-2.625-0.50781-4.6289-1.5156-6.0156-1.0117-1.3945-2.4648-2.0938-4.3594-2.0938zm0-6.25c4.6953 0 8.3672 1.2734 11.016 3.8125 2.6445 2.5312 3.9688 6.0469 3.9688 10.547 0 4.4922-1.3242 8.0078-3.9688 10.547-2.6484 2.5312-6.3203 3.7969-11.016 3.7969-4.7305 0-8.4219-1.2656-11.078-3.7969-2.6562-2.5391-3.9844-6.0547-3.9844-10.547 0-4.5 1.3281-8.0156 3.9844-10.547 2.6562-2.5391 6.3477-3.8125 11.078-3.8125z"/>
  </symbol>
  <symbol id="i" overflow="visible">
   <path d="m31.688-16.656v16.656h-8.7812v-12.75c0-2.3516-0.058594-3.9766-0.17188-4.875-0.10547-0.89453-0.28906-1.5547-0.54688-1.9844-0.33594-0.5625-0.79688-1-1.3906-1.3125-0.58594-0.32031-1.25-0.48438-2-0.48438-1.8242 0-3.2578 0.70312-4.2969 2.1094-1.043 1.4062-1.5625 3.3555-1.5625 5.8438v13.453h-8.7344v-27.344h8.7344v4c1.3203-1.5938 2.7227-2.7656 4.2031-3.5156 1.4766-0.75781 3.1133-1.1406 4.9062-1.1406 3.1562 0 5.5508 0.96875 7.1875 2.9062 1.6328 1.9375 2.4531 4.75 2.4531 8.4375z"/>
  </symbol>
 </defs>
 <g>
  <path d="m599.22 139.82c-1.6445-3.918-5.625-6.418-9.8203-6.1055l-77.414 4.6641c-19.574-31.145-47.469-50.789-78.488-50.789-46.738 0-100.98 29.105-108.04 109.62-17.207-8.5-49.258-20.18-98.578-22.598-15.121-0.73828-29.883-4.2617-43.871-10.473-17.078-7.582-30.059-16.934-37.535-27.047-2.4258-3.293-6.6289-4.7852-10.551-3.7344-3.9492 1.0195-6.8789 4.3438-7.4062 8.3906-0.55078 4.2539-12.902 104.76 39.734 165.79 16.129 18.703 36.543 31.598 60.98 38.574-20.156 8.6367-44.746 22.09-66.832 42.305-0.21875 0.17969-22.062 18.207-48.949 25.414-4.4219-1.125-9.2422 0.94922-11.387 5.2227-2.4688 4.9375-0.47266 10.938 4.4648 13.414 1.4102 0.70703 80.492 39.363 175.59 39.363 75.875 0 161.94-24.613 226.86-112.75 21.027-28.547 32.602-68.965 32.602-113.82 0-13.855-1.3438-27.23-3.6328-40.043l59.777-54.121c3.1445-2.8477 4.1484-7.375 2.5039-11.289zm-107.36 207.41c-56.973 77.348-137.41 112.29-239.08 104-47.234-3.875-88.402-16.703-113.28-26.09 20.031-9.2422 34.016-20.785 35.039-21.656 43.324-39.641 98.535-51.344 99.086-51.461 4.9961-1.0273 8.418-5.6406 7.9492-10.715-0.46875-5.0742-4.6719-8.9844-9.7656-9.082-38.32-0.70312-68.391-13.383-89.375-37.688-33.207-38.449-37.02-97.469-36.391-128.87 8.0156 6.1875 17.652 11.785 28.84 16.754 16.254 7.2188 33.418 11.309 51.012 12.172 70.664 3.457 102.33 27.277 102.6 27.48 3.0039 2.375 7.0898 2.8164 10.531 1.1562 3.4414-1.6562 5.6406-5.1328 5.6602-8.9531 0.42188-78.66 46.152-106.69 88.809-106.69 25.566 0 48.523 17.621 64.465 45.457 0.046874 0.09375 0.10547 0.17188 0.15234 0.26562 13.906 24.41 22.457 56.594 22.457 91.957 0 40.027-10.461 77.191-28.707 101.96zm39.934-164.32c-2.5898-8.8164-5.6953-17.223-9.2891-25.121l39.676-2.3906z"/>
  <path d="m431.5 158.89c-0.30078-0.59375-0.60156-1.1953-0.89844-1.6992-0.40234-0.5-0.80078-1.0977-1.3047-1.5-0.89844-0.89844-1.9961-1.6992-3.1992-2.2031-3.7031-1.5-8.1992-0.59375-10.898 2.2031-0.50391 0.40234-0.90234 1-1.3047 1.5-0.29688 0.50391-0.60156 1.1055-0.89844 1.6992-0.19922 0.60156-0.39844 1.3047-0.49609 1.9062-0.19922 0.59375-0.19922 1.2969-0.19922 1.8984 0 1.3945 0.19922 2.5977 0.69922 3.8945 0.5 1.2031 1.2969 2.3008 2.2031 3.2031 0.40234 0.5 0.89844 0.89844 1.5 1.2969 0.5 0.29688 1.0977 0.60156 1.6992 0.89844 0.60156 0.19922 1.2969 0.40234 1.8984 0.60156 0.60156 0.10156 1.2969 0.10156 1.8984 0.10156 1.4023 0 2.6016-0.19922 3.9023-0.70312 1.2031-0.5 2.3008-1.1953 3.1992-2.1992 0.90234-0.90234 1.6992-2 2.2031-3.2031 0.5-1.2969 0.69922-2.5 0.69922-3.8945 0-0.60156 0-1.3047-0.19922-1.8984-0.10547-0.59766-0.30469-1.3008-0.50391-1.9023z"/>
  <use x="70" y="710" xlink:href="#m"/>
  <use x="106.695312" y="710" xlink:href="#b"/>
  <use x="131.351562" y="710" xlink:href="#a"/>
  <use x="165.265625" y="710" xlink:href="#h"/>
  <use x="199.003906" y="710" xlink:href="#g"/>
  <use x="222.90625" y="710" xlink:href="#a"/>
  <use x="256.816406" y="710" xlink:href="#f"/>
  <use x="310.015625" y="710" xlink:href="#e"/>
  <use x="345.804688" y="710" xlink:href="#d"/>
  <use x="395.804688" y="710" xlink:href="#b"/>
  <use x="420.464844" y="710" xlink:href="#c"/>
  <use x="437.601562" y="710" xlink:href="#l"/>
  <use x="470.195312" y="710" xlink:href="#a"/>
  <use x="504.105469" y="710" xlink:href="#b"/>
  <use x="528.765625" y="710" xlink:href="#k"/>
  <use x="558.402344" y="710" xlink:href="#j"/>
  <use x="592.753906" y="710" xlink:href="#i"/>
 </g>
</svg>
