<?xml version="1.0" encoding="UTF-8"?>
<svg width="700pt" height="700pt" version="1.1" viewBox="0 0 700 700" xmlns="http://www.w3.org/2000/svg">
 <path d="m542.5 297.5h-315c-9.6641 0-17.5-7.8359-17.5-17.5s7.8359-17.5 17.5-17.5h315c9.6641 0 17.5 7.8359 17.5 17.5s-7.8359 17.5-17.5 17.5zm-87.5 140h-315c-9.6641 0-17.5-7.8359-17.5-17.5s7.8359-17.5 17.5-17.5h315c9.6641 0 17.5 7.8359 17.5 17.5s-7.8359 17.5-17.5 17.5zm0-280h-315c-9.6641 0-17.5-7.8359-17.5-17.5s7.8359-17.5 17.5-17.5h315c9.6641 0 17.5 7.8359 17.5 17.5s-7.8359 17.5-17.5 17.5z"/>
</svg>
