<?xml version="1.0" encoding="UTF-8"?>
<svg width="700pt" height="700pt" version="1.1" viewBox="0 0 700 700" xmlns="http://www.w3.org/2000/svg">
 <g>
  <path d="m373.33 303.33c0-12.887-10.445-23.332-23.332-23.332s-23.332 10.445-23.332 23.332v93.336c0 12.887 10.445 23.332 23.332 23.332s23.332-10.445 23.332-23.332z"/>
  <path d="m280 280c12.887 0 23.332 10.445 23.332 23.332v93.336c0 12.887-10.445 23.332-23.332 23.332s-23.332-10.445-23.332-23.332v-93.336c0-12.887 10.445-23.332 23.332-23.332z"/>
  <path d="m443.33 303.33c0-12.887-10.445-23.332-23.332-23.332s-23.332 10.445-23.332 23.332v93.336c0 12.887 10.445 23.332 23.332 23.332s23.332-10.445 23.332-23.332z"/>
  <path d="m311.62 73.648c10.871 6.918 14.078 21.34 7.1562 32.211l-66.266 104.14h194.98l-66.266-104.14c-6.9219-10.871-3.7148-25.293 7.1562-32.211 10.871-6.918 25.293-3.7148 32.211 7.1562l82.215 129.2h57.191c12.887 0 23.332 10.445 23.332 23.332s-10.445 23.336-23.332 23.336h-4.2031l-35.414 177.06c-6.543 32.723-35.273 56.273-68.641 56.273h-203.48c-33.367 0-62.098-23.551-68.641-56.273l-35.414-177.06h-4.2031c-12.887 0-23.332-10.449-23.332-23.336s10.445-23.332 23.332-23.332h57.191l82.215-129.2c6.918-10.871 21.34-14.074 32.211-7.1562zm-101.26 183.02c-0.25 0.003906-0.50391 0.003906-0.75391 0h-17.805l33.582 167.91c2.1797 10.906 11.758 18.758 22.879 18.758h203.48c11.125 0 20.699-7.8516 22.883-18.758l33.578-167.91h-17.805c-0.25 0.003906-0.50391 0.003906-0.75391 0z" fill-rule="evenodd"/>
 </g>
</svg>
