<svg width="16" height="12" viewBox="0 0 16 12" fill="none" xmlns="http://www.w3.org/2000/svg">
<path d="M15.4078 1.7753C15.357 1.66169 15.2342 1.58919 15.1047 1.59825L12.7154 1.7335C12.1112 0.830371 11.2503 0.260742 10.2929 0.260742C8.85041 0.260742 7.17628 1.10472 6.95838 3.43946C6.42731 3.19298 5.43809 2.85429 3.91588 2.78417C3.44919 2.76276 2.99358 2.66059 2.56185 2.48048C2.03476 2.26062 1.63411 1.98943 1.40337 1.69618C1.3285 1.60069 1.19878 1.55742 1.07773 1.58789C0.955841 1.61746 0.865419 1.71385 0.849144 1.8312C0.832145 1.95455 0.450938 4.86899 2.07549 6.63871C2.5733 7.18106 3.20335 7.55498 3.95757 7.75727C3.33548 8.00771 2.57654 8.39783 1.89488 8.98401C1.88812 8.98922 1.21396 9.51197 0.384118 9.72096C0.24764 9.68834 0.098867 9.74848 0.0326701 9.8724C-0.0435267 10.0156 0.0180819 10.1896 0.170471 10.2614C0.213996 10.2819 2.65477 11.4028 5.58987 11.4028C7.93167 11.4028 10.588 10.6891 12.5917 8.13333C13.2406 7.30553 13.5979 6.13351 13.5979 4.83282C13.5979 4.43106 13.5564 4.04322 13.4858 3.67167L15.3307 2.10229C15.4278 2.01971 15.4587 1.88843 15.408 1.77494L15.4078 1.7753ZM12.0942 7.78969C10.3358 10.0326 7.8532 11.0458 4.71527 10.8054C3.25744 10.6931 1.98683 10.3211 1.219 10.0489C1.83724 9.7809 2.26887 9.44618 2.30044 9.42093C3.63759 8.27143 5.34162 7.93207 5.35862 7.92868C5.51282 7.89889 5.61844 7.76512 5.60397 7.61797C5.5895 7.47083 5.45977 7.35744 5.30256 7.35461C4.11986 7.33422 3.19175 6.96654 2.5441 6.26175C1.5192 5.14682 1.40152 3.43538 1.42093 2.52483C1.66833 2.70425 1.96574 2.86657 2.31105 3.01065C2.81271 3.21998 3.34246 3.33859 3.88548 3.36361C6.06645 3.46386 7.04378 4.15458 7.05212 4.16047C7.14483 4.22934 7.27093 4.24214 7.37714 4.194C7.48336 4.14597 7.55123 4.04516 7.55184 3.93438C7.56486 1.65342 8.97627 0.840622 10.2928 0.840622C11.0819 0.840622 11.7904 1.35159 12.2825 2.15877C12.2839 2.16148 12.2857 2.16375 12.2872 2.16647C12.7164 2.8743 12.9803 3.80756 12.9803 4.833C12.9803 5.99369 12.6574 7.07136 12.0943 7.7896L12.0942 7.78969ZM13.3267 3.02481C13.2468 2.76915 13.151 2.52538 13.04 2.29636L14.2646 2.22704L13.3267 3.02481Z" fill="white"/>
</svg>
